<svg width="106" height="106" viewBox="0 0 106 106" fill="none" xmlns="http://www.w3.org/2000/svg">
<path fill-rule="evenodd" clip-rule="evenodd" d="M17.7286 1.807C18.3874 2.59813 18.2802 3.77357 17.4891 4.43241L9.30405 11.2488L17.5389 18.6148C18.3063 19.3012 18.3719 20.4796 17.6855 21.247C16.9992 22.0144 15.8207 22.08 15.0533 21.3936L5.20875 12.5878C4.80482 12.2265 4.57812 11.7073 4.58769 11.1655C4.59727 10.6236 4.84217 10.1128 5.25861 9.76595L15.1032 1.56748C15.8943 0.908634 17.0697 1.01587 17.7286 1.807Z" fill="#FECC00"/>
<path d="M15.4821 56.4807C14.0032 56.4807 12.725 56.3011 11.6475 55.942C10.57 55.5828 9.67211 55.118 8.95379 54.5476C8.2566 53.956 7.72842 53.3222 7.36926 52.6461C7.0101 51.9489 6.81996 51.2623 6.79883 50.5863C6.79883 50.3961 6.86221 50.2482 6.98897 50.1426C7.13686 50.0158 7.30588 49.9524 7.49602 49.9524H10.3482C10.5595 49.9524 10.739 49.9947 10.8869 50.0792C11.0348 50.1637 11.1616 50.3327 11.2672 50.5863C11.4574 51.1567 11.7637 51.6109 12.1862 51.949C12.6299 52.287 13.137 52.5299 13.7074 52.6778C14.2778 52.8046 14.8799 52.868 15.5138 52.868C16.7814 52.868 17.7849 52.5722 18.5244 51.9806C19.2849 51.368 19.6652 50.5017 19.6652 49.382C19.6652 48.2623 19.3166 47.4594 18.6194 46.9735C17.9222 46.4665 16.9504 46.2129 15.7039 46.2129H12.4398C12.2074 46.2129 12.0172 46.1496 11.8693 46.0228C11.7214 45.8749 11.6475 45.6848 11.6475 45.4524V44.1214C11.6475 43.9101 11.6898 43.7305 11.7743 43.5826C11.8799 43.4136 11.9855 43.2763 12.0912 43.1706L17.7638 37.6248H8.70027C8.46787 37.6248 8.27773 37.5508 8.12984 37.4029C8.00307 37.255 7.93969 37.0755 7.93969 36.8642V34.7726C7.93969 34.5402 8.00307 34.3501 8.12984 34.2022C8.27773 34.0543 8.46787 33.9803 8.70027 33.9803H22.2956C22.528 33.9803 22.7181 34.0543 22.866 34.2022C23.0139 34.3501 23.0878 34.5402 23.0878 34.7726V36.6741C23.0878 36.8642 23.0456 37.0332 22.9611 37.1811C22.8766 37.329 22.7815 37.4558 22.6758 37.5614L17.1934 43.2023L17.5737 43.234C18.8624 43.3397 20.0033 43.6354 20.9962 44.1214C22.0103 44.5862 22.792 45.2728 23.3414 46.1813C23.9118 47.0897 24.197 48.2306 24.197 49.6038C24.197 51.0405 23.8167 52.2764 23.0561 53.3116C22.3167 54.3258 21.292 55.1075 19.9821 55.6568C18.6723 56.2061 17.1722 56.4807 15.4821 56.4807Z" fill="white"/>
<path d="M35.9849 52.0488C35.9849 49.9587 36.8151 47.9543 38.293 46.4764C39.7709 44.9985 41.7754 44.1682 43.8654 44.1682H91.1489C93.2389 44.1682 95.2434 44.9985 96.7213 46.4764C98.1992 47.9543 99.0295 49.9587 99.0295 52.0488V64.4449C97.8419 63.3817 96.5165 62.4831 95.0892 61.7734V52.0488C95.0892 51.0038 94.674 50.0015 93.9351 49.2626C93.1961 48.5236 92.1939 48.1085 91.1489 48.1085H43.8654C42.8204 48.1085 41.8182 48.5236 41.0792 49.2626C40.3403 50.0015 39.9252 51.0038 39.9252 52.0488V83.5711C39.9252 84.6161 40.3403 85.6183 41.0792 86.3573C41.8182 87.0962 42.8204 87.5114 43.8654 87.5114H72.464C72.7635 87.9566 73.0827 88.3901 73.4176 88.8077V91.4517H43.8654C41.7754 91.4517 39.7709 90.6214 38.293 89.1435C36.8151 87.6656 35.9849 85.6611 35.9849 83.5711V52.0488Z" fill="white"/>
<path d="M100.999 77.6606C100.999 81.4196 99.4978 84.824 97.0587 87.3143V103.272C97.0587 103.638 96.9568 103.997 96.7645 104.308C96.5721 104.619 96.2969 104.871 95.9696 105.035C95.6424 105.198 95.276 105.267 94.9116 105.235C94.5472 105.202 94.1992 105.068 93.9065 104.849L88.3901 100.711C88.0491 100.455 87.6343 100.317 87.208 100.317C86.7817 100.317 86.3669 100.455 86.0259 100.711L80.5095 104.849C80.2168 105.068 79.8688 105.202 79.5044 105.235C79.14 105.267 78.7736 105.198 78.4463 105.035C78.1191 104.871 77.8439 104.619 77.6515 104.308C77.4592 103.997 77.3573 103.638 77.3573 103.272V87.3143C75.7743 85.6986 74.613 83.7184 73.9757 81.5481C73.3384 79.3779 73.2447 77.0842 73.7029 74.8691C74.161 72.6541 75.157 70.5858 76.6029 68.8464C78.0489 67.1071 79.9005 65.7501 81.9946 64.895C84.0886 64.0399 86.3608 63.713 88.611 63.9431C90.8612 64.1733 93.0202 64.9533 94.8978 66.2145C96.7755 67.4758 98.3141 69.1795 99.378 71.1755C100.442 73.1716 100.999 75.3987 100.999 77.6606ZM87.208 91.4516C85.0921 91.4516 83.0904 90.9788 81.2976 90.1237V98.3471L86.1953 95.4076C86.5013 95.2243 86.8513 95.1275 87.208 95.1275C87.5647 95.1275 87.9147 95.2243 88.2206 95.4076L93.1184 98.3471V90.1237C91.2717 91.0007 89.2524 91.4543 87.208 91.4516ZM87.208 87.5113C89.8206 87.5113 92.3261 86.4735 94.1735 84.6261C96.0209 82.7787 97.0587 80.2732 97.0587 77.6606C97.0587 75.048 96.0209 72.5424 94.1735 70.6951C92.3261 68.8477 89.8206 67.8099 87.208 67.8099C84.5954 67.8099 82.0899 68.8477 80.2425 70.6951C78.3951 72.5424 77.3573 75.048 77.3573 77.6606C77.3573 80.2732 78.3951 82.7787 80.2425 84.6261C82.0899 86.4735 84.5954 87.5113 87.208 87.5113Z" fill="#FECC00"/>
<path d="M47.8057 57.9592C47.8057 57.4366 48.0132 56.9355 48.3827 56.5661C48.7522 56.1966 49.2533 55.989 49.7758 55.989H85.2384C85.7609 55.989 86.262 56.1966 86.6315 56.5661C87.001 56.9355 87.2085 57.4366 87.2085 57.9592C87.2085 58.4817 87.001 58.9828 86.6315 59.3523C86.262 59.7217 85.7609 59.9293 85.2384 59.9293H49.7758C49.2533 59.9293 48.7522 59.7217 48.3827 59.3523C48.0132 58.9828 47.8057 58.4817 47.8057 57.9592Z" fill="white"/>
<path d="M49.7758 75.6906C49.2533 75.6906 48.7522 75.8981 48.3827 76.2676C48.0132 76.6371 47.8057 77.1382 47.8057 77.6607C47.8057 78.1832 48.0132 78.6843 48.3827 79.0538C48.7522 79.4233 49.2533 79.6308 49.7758 79.6308H65.537C66.0595 79.6308 66.5606 79.4233 66.9301 79.0538C67.2995 78.6843 67.5071 78.1832 67.5071 77.6607C67.5071 77.1382 67.2995 76.6371 66.9301 76.2676C66.5606 75.8981 66.0595 75.6906 65.537 75.6906H49.7758Z" fill="white"/>
<path fill-rule="evenodd" clip-rule="evenodd" d="M9.95703 11.0547C9.95703 10.0252 10.7916 9.19055 11.8212 9.19055C25.8064 9.19055 33.1389 14.5993 36.8753 20.3284C38.707 23.137 39.6175 25.9356 40.0721 28.0265C40.2999 29.0746 40.4152 29.9541 40.4737 30.5814C40.5029 30.8954 40.518 31.1472 40.5258 31.3266C40.5297 31.4164 40.5318 31.4881 40.5329 31.5405C40.5335 31.5667 40.5338 31.5882 40.5339 31.6046L40.5341 31.6255L40.5341 31.6331L40.5341 31.6362C40.5342 31.6375 40.5342 31.6388 38.67 31.6388H40.5342C40.5342 32.6683 39.6995 33.5029 38.67 33.5029C37.6422 33.5029 36.8087 32.6712 36.8058 31.6441L36.8058 31.6432L36.8054 31.619C36.8049 31.5935 36.8037 31.5496 36.801 31.4886C36.7957 31.3665 36.7846 31.1761 36.7614 30.9272C36.715 30.4289 36.6205 29.7002 36.4289 28.8185C36.0444 27.05 35.2769 24.7026 33.7525 22.3651C30.7766 17.8022 24.6848 12.9189 11.8212 12.9189C10.7916 12.9189 9.95703 12.0843 9.95703 11.0547Z" fill="#FECC00"/>
</svg>
