<svg width="106" height="106" viewBox="0 0 106 106" fill="none" xmlns="http://www.w3.org/2000/svg">
<path fill-rule="evenodd" clip-rule="evenodd" d="M53 74C69.5685 74 83 60.5685 83 44C83 27.4315 69.5685 14 53 14C36.4315 14 23 27.4315 23 44C23 60.5685 36.4315 74 53 74ZM53 78C71.7777 78 87 62.7777 87 44C87 25.2223 71.7777 10 53 10C34.2223 10 19 25.2223 19 44C19 62.7777 34.2223 78 53 78Z" fill="white"/>
<path fill-rule="evenodd" clip-rule="evenodd" d="M67.8045 32.484C68.6418 33.2045 68.7365 34.4672 68.016 35.3045L49.516 56.8045C49.1531 57.2263 48.6309 57.4778 48.0748 57.4986C47.5188 57.5195 46.9792 57.3077 46.5858 56.9142L37.5858 47.9142C36.8047 47.1332 36.8047 45.8669 37.5858 45.0858C38.3668 44.3048 39.6332 44.3048 40.4142 45.0858L47.89 52.5616L64.984 32.6956C65.7044 31.8583 66.9672 31.7636 67.8045 32.484Z" fill="#FECC00"/>
<path fill-rule="evenodd" clip-rule="evenodd" d="M39 72C40.1046 72 41 72.8954 41 74V93.6179L51.5364 87.8244C52.1364 87.4944 52.8636 87.4944 53.4636 87.8244L64 93.6179V74C64 72.8954 64.8954 72 66 72C67.1046 72 68 72.8954 68 74V97C68 97.7071 67.6266 98.3616 67.018 98.7215C66.4094 99.0814 65.6559 99.0932 65.0364 98.7525L52.5 91.8593L39.9636 98.7525C39.3441 99.0932 38.5906 99.0814 37.982 98.7215C37.3734 98.3616 37 97.7071 37 97V74C37 72.8954 37.8954 72 39 72Z" fill="white"/>
</svg>
