<svg width="106" height="106" viewBox="0 0 106 106" fill="none" xmlns="http://www.w3.org/2000/svg">
<path fill-rule="evenodd" clip-rule="evenodd" d="M60.1411 78.1685C61.4768 78.1685 62.5596 79.2512 62.5596 80.5869V98C62.5596 99.3357 61.4768 100.418 60.1411 100.418C58.8054 100.418 57.7227 99.3357 57.7227 98V80.5869C57.7227 79.2512 58.8054 78.1685 60.1411 78.1685Z" fill="#FECC00"/>
<path d="M5 17.5184C5 15.2592 5.89747 13.0925 7.49497 11.495C9.09247 9.89747 11.2592 9 13.5184 9H64.6286C66.8878 9 69.0545 9.89747 70.652 11.495C72.2495 13.0925 73.1469 15.2592 73.1469 17.5184V30.9178C71.8632 29.7684 70.4306 28.7971 68.8878 28.03V17.5184C68.8878 16.3888 68.439 15.3054 67.6403 14.5067C66.8415 13.7079 65.7582 13.2592 64.6286 13.2592H13.5184C12.3888 13.2592 11.3054 13.7079 10.5067 14.5067C9.70792 15.3054 9.25918 16.3888 9.25918 17.5184V51.5918C9.25918 52.7214 9.70792 53.8048 10.5067 54.6035C11.3054 55.4023 12.3888 55.851 13.5184 55.851H44.4315C44.7552 56.3323 45.1002 56.8008 45.4622 57.2523V60.1102H13.5184C11.2592 60.1102 9.09247 59.2127 7.49497 57.6152C5.89747 56.0177 5 53.851 5 51.5918V17.5184Z" fill="white"/>
<path d="M75.2762 45.2029C75.2762 49.2662 73.6534 52.9461 71.017 55.6379V72.8876C71.017 73.2831 70.9069 73.6708 70.699 74.0072C70.491 74.3437 70.1935 74.6155 69.8398 74.7924C69.4861 74.9693 69.0901 75.0441 68.6962 75.0086C68.3023 74.9731 67.9261 74.8286 67.6097 74.5913L61.6468 70.1192C61.2782 69.8427 60.8298 69.6933 60.3691 69.6933C59.9083 69.6933 59.4599 69.8427 59.0913 70.1192L53.1284 74.5913C52.8121 74.8286 52.4358 74.9731 52.0419 75.0086C51.648 75.0441 51.252 74.9693 50.8983 74.7924C50.5446 74.6155 50.2471 74.3437 50.0391 74.0072C49.8312 73.6708 49.7211 73.2831 49.7211 72.8876V55.6379C48.01 53.8915 46.7547 51.7511 46.0658 49.4051C45.377 47.0592 45.2757 44.5799 45.7709 42.1856C46.2662 39.7913 47.3427 37.5556 48.9057 35.6754C50.4687 33.7953 52.4701 32.3285 54.7337 31.4042C56.9972 30.4799 59.4533 30.1266 61.8856 30.3753C64.3179 30.6241 66.6517 31.4672 68.6813 32.8305C70.7108 34.1939 72.374 36.0354 73.524 38.193C74.6741 40.3506 75.2758 42.758 75.2762 45.2029ZM60.3691 60.1101C58.0819 60.1101 55.9182 59.599 53.9803 58.6747V67.5637L59.2744 64.3863C59.6052 64.1881 59.9835 64.0835 60.3691 64.0835C60.7546 64.0835 61.1329 64.1881 61.4637 64.3863L66.7578 67.5637V58.6747C64.7616 59.6227 62.5789 60.1131 60.3691 60.1101ZM60.3691 55.8509C63.1931 55.8509 65.9014 54.7291 67.8983 52.7322C69.8952 50.7353 71.017 48.027 71.017 45.2029C71.017 42.3789 69.8952 39.6706 67.8983 37.6737C65.9014 35.6768 63.1931 34.555 60.3691 34.555C57.545 34.555 54.8367 35.6768 52.8398 37.6737C50.8429 39.6706 49.7211 42.3789 49.7211 45.2029C49.7211 48.027 50.8429 50.7353 52.8398 52.7322C54.8367 54.7291 57.545 55.8509 60.3691 55.8509Z" fill="#FECC00"/>
<path d="M17.7773 23.9072C17.7773 23.3424 18.0017 22.8007 18.4011 22.4013C18.8005 22.002 19.3421 21.7776 19.9069 21.7776H58.2396C58.8044 21.7776 59.3461 22.002 59.7454 22.4013C60.1448 22.8007 60.3692 23.3424 60.3692 23.9072C60.3692 24.472 60.1448 25.0137 59.7454 25.413C59.3461 25.8124 58.8044 26.0368 58.2396 26.0368H19.9069C19.3421 26.0368 18.8005 25.8124 18.4011 25.413C18.0017 25.0137 17.7773 24.472 17.7773 23.9072Z" fill="white"/>
<path d="M19.9069 43.0735C19.3421 43.0735 18.8005 43.2979 18.4011 43.6972C18.0017 44.0966 17.7773 44.6383 17.7773 45.2031C17.7773 45.7679 18.0017 46.3096 18.4011 46.7089C18.8005 47.1083 19.3421 47.3327 19.9069 47.3327H36.9437C37.5085 47.3327 38.0501 47.1083 38.4495 46.7089C38.8489 46.3096 39.0733 45.7679 39.0733 45.2031C39.0733 44.6383 38.8489 44.0966 38.4495 43.6972C38.0501 43.2979 37.5085 43.0735 36.9437 43.0735H19.9069Z" fill="white"/>
<path fill-rule="evenodd" clip-rule="evenodd" d="M43.212 70.4293C44.0134 71.4979 43.7969 73.0138 42.7283 73.8152L27.2501 85.4239C26.1815 86.2253 24.6656 86.0087 23.8642 84.9402C23.0628 83.8716 23.2794 82.3557 24.3479 81.5543L39.8262 69.9456C40.8947 69.1442 42.4106 69.3608 43.212 70.4293Z" fill="#FECC00"/>
<path fill-rule="evenodd" clip-rule="evenodd" d="M77.5134 70.4858C76.7431 71.577 77.0033 73.086 78.0945 73.8563L94.5401 85.465C95.6314 86.2353 97.1404 85.9751 97.9107 84.8839C98.6809 83.7926 98.4207 82.2836 97.3295 81.5133L80.8839 69.9047C79.7927 69.1344 78.2836 69.3946 77.5134 70.4858Z" fill="#FECC00"/>
<path fill-rule="evenodd" clip-rule="evenodd" d="M81.9077 52.5326C81.9077 51.1969 82.9905 50.1141 84.3262 50.1141L101.739 50.1141C103.075 50.1141 104.158 51.1969 104.158 52.5326C104.158 53.8683 103.075 54.951 101.739 54.951L84.3262 54.951C82.9905 54.951 81.9077 53.8683 81.9077 52.5326Z" fill="#FECC00"/>
</svg>
