<svg width="100" height="100" viewBox="0 0 100 100" fill="none" xmlns="http://www.w3.org/2000/svg">
<rect x="1.5" y="16.5" width="97" height="67" rx="3.5" fill="#E8E9EC" stroke="#002378" stroke-width="3"/>
<path d="M56.5 36.5H86" stroke="#002378" stroke-width="3" stroke-linecap="round"/>
<path d="M56.5 50H86" stroke="#002378" stroke-width="3" stroke-linecap="round"/>
<path d="M57 57H82" stroke="#002378" stroke-width="3" stroke-linecap="round"/>
<path d="M56.5 64H86" stroke="#002378" stroke-width="3" stroke-linecap="round"/>
<path fill-rule="evenodd" clip-rule="evenodd" d="M32.2061 31.6173C33.5967 31.4325 35.0618 31.4799 36.313 31.5636C37.8332 31.6652 39.0167 32.3794 39.978 33.1825C40.4567 33.5825 40.8947 34.017 41.2938 34.4198L41.4537 34.5815C41.7975 34.9293 42.1081 35.2436 42.418 35.5198C42.8233 35.881 43.4049 36.0417 44.0765 36.0721C44.6716 36.099 45.235 36.0214 45.6704 35.9614L45.6705 35.9613C45.7242 35.9539 45.776 35.9468 45.8256 35.9402C46.058 35.9091 46.2928 35.9771 46.4731 36.1277C47.0942 36.6467 47.3512 37.3802 47.4509 37.9574C47.5492 38.5265 47.5216 39.0985 47.4224 39.4465C47.4061 39.5038 47.3837 39.5592 47.3558 39.6117C45.8788 42.3884 43.2437 44.4841 39.4836 44.4841C38.6845 44.4841 37.882 44.3355 37.1256 44.1091L36.781 46.1851L38.2445 48.1445C38.7323 48.471 39.7079 49.712 39.7079 52.0632C39.7079 55.0023 38.7323 56.9617 36.781 58.921L36.2932 60.8804L38.2445 63.3297V65.7789L36.781 66.7586H30.9274L29.9517 65.289L30.7647 61.207H27.4344C27.3801 61.207 27.3271 61.2018 27.2756 61.192C27.1445 61.6139 26.9874 61.9858 26.8425 62.2861C27.6164 62.7858 28.0493 63.4936 28.2512 64.1879C28.3822 64.6381 28.4156 65.0764 28.3959 65.446C28.3773 65.7937 28.3074 66.1572 28.1673 66.4312C28.0236 66.7123 27.7354 66.889 27.4207 66.889H22.8743C21.6266 66.889 19.9047 66.6669 18.4393 65.6625C17.4823 65.0065 16.6843 64.0511 16.1917 62.7149C15.0406 62.6564 13.5957 62.2384 12.2497 61.1933C10.5672 59.887 9.09939 57.6497 8.49952 54.0642C8.42273 53.6052 8.73102 53.1706 9.18811 53.0934C9.6452 53.0163 10.078 53.3259 10.1548 53.7849C10.6968 57.0247 11.9818 58.8548 13.2763 59.8599C14.1341 60.5259 15.023 60.8515 15.7636 60.9752C15.7193 60.662 15.6882 60.3339 15.6712 59.9903C15.3923 54.3537 18.6199 50.6385 22.1979 49.3321C23.3321 48.918 24.3865 48.0969 25.2591 47.1919C25.9681 46.4567 26.5239 45.7007 26.8737 45.1439C26.4317 44.8648 26.1011 44.4799 25.8748 44.0053C25.6139 43.4584 25.5049 42.8217 25.4734 42.1428C25.4418 41.4597 25.487 40.6782 25.5734 39.8117C25.7494 38.0476 26.0818 36.7427 26.5416 35.7127C27.0062 34.6722 27.5835 33.9513 28.1928 33.3404C29.2274 32.3031 30.669 31.8368 32.0846 31.6341C32.1159 31.6296 32.1472 31.6252 32.1786 31.621C32.1878 31.6196 32.197 31.6184 32.2061 31.6173Z" fill="white"/>
<path fill-rule="evenodd" clip-rule="evenodd" d="M32.3112 31.1302C33.7366 30.9415 35.2383 30.99 36.5208 31.0754C38.079 31.1791 39.2921 31.9081 40.2773 32.7279C40.768 33.1362 41.217 33.5796 41.626 33.9908C41.6816 34.0466 41.7362 34.1016 41.79 34.1558C42.1423 34.5108 42.4607 34.8316 42.7784 35.1136C43.1938 35.4823 43.7899 35.6464 44.4783 35.6774C45.0883 35.7048 45.6657 35.6256 46.1121 35.5643C46.1671 35.5568 46.2202 35.5495 46.2711 35.5427C46.5094 35.511 46.7501 35.5804 46.9348 35.7341C47.5715 36.2639 47.8349 37.0126 47.9371 37.6018C48.0379 38.1826 48.0095 38.7665 47.9079 39.1217C47.8911 39.1802 47.8682 39.2367 47.8396 39.2904C46.3257 42.1246 43.6247 44.2637 39.7707 44.2637C38.1911 44.2637 36.5987 43.6996 35.3568 43.09C34.7721 42.803 34.2378 42.4922 33.7938 42.201C33.3683 43.318 32.713 44.1504 31.8858 44.6994C31.0552 45.2507 30.1056 45.4802 29.1535 45.4802C28.3937 45.4802 27.7108 45.374 27.1341 45.0964C26.5337 44.8073 26.1005 44.3573 25.8216 43.7751C25.5543 43.2168 25.4425 42.5668 25.4103 41.8739C25.3778 41.1766 25.4242 40.3789 25.5127 39.4945C25.6931 37.6938 26.0338 36.3618 26.5052 35.3105C26.9813 34.2485 27.5731 33.5125 28.1976 32.889C29.2581 31.8302 30.7356 31.3543 32.1867 31.1473C32.2187 31.1427 32.2508 31.1383 32.283 31.134C32.2924 31.1325 32.3018 31.1313 32.3112 31.1302ZM31.7831 32.965C30.7887 33.1789 29.9756 33.5449 29.4132 34.1065C28.8977 34.6211 28.4452 35.1886 28.075 36.0143C27.7 36.8507 27.3924 37.9909 27.2246 39.6659C27.1391 40.5193 27.1022 41.2205 27.1288 41.7941C27.1557 42.3719 27.2453 42.7647 27.3733 43.0319C27.4898 43.2752 27.6459 43.4333 27.8803 43.5462C28.1384 43.6704 28.5359 43.7598 29.1535 43.7598C29.8296 43.7598 30.4337 43.5983 30.9345 43.2659C31.431 42.9364 31.8804 42.403 32.1948 41.5653C32.3025 41.2784 32.3937 40.9571 32.4648 40.5989C32.4663 40.5912 32.4678 40.5835 32.4694 40.5758C32.7944 38.9111 32.6871 36.4555 31.7831 32.965ZM34.2406 40.4143C34.5165 38.4795 34.3153 35.956 33.5031 32.7467C34.4699 32.6924 35.4688 32.7296 36.4065 32.792C37.4591 32.862 38.3347 33.3496 39.177 34.0504C39.6 34.4024 39.9996 34.7953 40.4064 35.2042C40.4589 35.257 40.5118 35.3102 40.5649 35.3638C40.9134 35.7151 41.2745 36.0792 41.6364 36.4003C42.4741 37.1438 43.5315 37.3569 44.4009 37.396C45.0172 37.4238 45.6062 37.3655 46.0424 37.3098C46.134 37.4673 46.202 37.6656 46.242 37.8959C46.2734 38.0767 46.2826 38.2526 46.2786 38.3991C46.2766 38.4719 46.2715 38.533 46.2654 38.5798C46.2651 38.5819 46.2649 38.5839 46.2646 38.5858C44.9861 40.909 42.8323 42.5433 39.7707 42.5433C38.5654 42.5433 37.247 42.1013 36.1149 41.5456C35.2907 41.1411 34.6298 40.7088 34.2406 40.4143Z" fill="#002378" stroke="#002378" stroke-linecap="round" stroke-linejoin="round"/>
<path fill-rule="evenodd" clip-rule="evenodd" d="M36.3247 42.9863C36.7998 42.9863 37.1849 43.3715 37.1849 43.8465V46.6045C38.4789 47.3598 40.1221 49.2566 40.2587 52.6626C40.4039 56.2855 38.3761 58.4541 36.9495 59.3152L36.7055 61.5401C37.6078 62.0432 38.1151 62.8241 38.3586 63.6158C38.643 64.5404 38.5751 65.4835 38.4261 66.091C38.3318 66.4758 37.9868 66.7463 37.5907 66.7463H30.8993C30.6592 66.7463 30.43 66.646 30.2672 66.4696C30.1043 66.2932 30.0226 66.0567 30.0418 65.8174C30.1881 63.9925 30.7089 59.4737 30.9493 57.4545C31.0055 56.9827 31.4335 56.6458 31.9052 56.702C32.377 56.7582 32.7139 57.1862 32.6577 57.6579C32.4509 59.3941 32.0435 62.9239 31.8403 65.0259H36.834C36.8385 64.7391 36.8068 64.4227 36.7142 64.1216C36.5524 63.5956 36.2147 63.1258 35.5033 62.882C35.1226 62.7515 34.8832 62.3745 34.9271 61.9744L35.2888 58.6772C35.3219 58.3754 35.5116 58.1135 35.7879 57.9879C36.6801 57.5823 38.6676 55.9251 38.5396 52.7315C38.4079 49.4455 36.6444 48.1731 36.0335 47.9532C35.6921 47.8304 35.4645 47.5066 35.4645 47.1438V43.8465C35.4645 43.3715 35.8496 42.9863 36.3247 42.9863Z" fill="#002378" stroke="#002378" stroke-linecap="round" stroke-linejoin="round"/>
<path fill-rule="evenodd" clip-rule="evenodd" d="M26.5601 60.473C26.5601 59.9979 26.9452 59.6128 27.4203 59.6128H31.2869C31.7619 59.6128 32.1471 59.9979 32.1471 60.473C32.1471 60.9481 31.7619 61.3332 31.2869 61.3332H27.4203C26.9452 61.3332 26.5601 60.9481 26.5601 60.473Z" fill="#002378" stroke="#002378" stroke-linecap="round" stroke-linejoin="round"/>
<path d="M38.9069 36.5001C38.9069 36.8646 38.6114 37.16 38.2469 37.16C37.8824 37.16 37.5869 36.8646 37.5869 36.5001C37.5869 36.1356 37.8824 35.8401 38.2469 35.8401C38.6114 35.8401 38.9069 36.1356 38.9069 36.5001Z" fill="#002378" stroke="#002378"/>
<path fill-rule="evenodd" clip-rule="evenodd" d="M28.2265 44.2561C28.641 44.4882 28.7889 45.0124 28.5567 45.4269C28.166 46.1245 27.4227 47.196 26.427 48.2244C25.4352 49.2486 24.1415 50.2835 22.6412 50.829C19.6514 51.9161 16.835 55.0398 17.0817 60.0059C17.2034 62.4545 18.1243 63.7459 19.1707 64.4602C20.265 65.2071 21.629 65.4127 22.7466 65.4127H26.6907C26.687 65.2404 26.6623 65.0494 26.6065 64.8583C26.4689 64.387 26.1415 63.8915 25.3473 63.6329C25.0885 63.5486 24.8849 63.347 24.7982 63.0891C24.7118 62.8319 24.7517 62.5491 24.9059 62.3259C24.906 62.3258 24.9058 62.326 24.9059 62.3259C24.9059 62.3258 24.9062 62.3254 24.9063 62.3253C24.9064 62.3252 24.9065 62.3251 24.9066 62.325C24.9067 62.3248 24.9068 62.3247 24.9069 62.3245C24.907 62.3243 24.9071 62.3242 24.9072 62.324L24.9078 62.3231C24.9092 62.321 24.9114 62.3178 24.9143 62.3134C24.9162 62.3105 24.9185 62.307 24.9211 62.3031C24.9339 62.2835 24.9543 62.2518 24.9806 62.2089C25.0332 62.1231 25.1086 61.9937 25.1934 61.8292C25.3643 61.4975 25.5657 61.0372 25.6984 60.513C25.9635 59.4655 25.9376 58.2712 24.9844 57.2487C24.6604 56.9012 24.6795 56.3569 25.027 56.0329C25.3745 55.709 25.9188 55.7281 26.2428 56.0756C27.7395 57.6811 27.7135 59.5632 27.3662 60.9352C27.2169 61.5248 27.0052 62.0402 26.814 62.4347C27.6072 62.9448 28.0509 63.6672 28.2579 64.3759C28.3922 64.8355 28.4264 65.2829 28.4062 65.6601C28.3872 66.015 28.3156 66.386 28.172 66.6657C28.0247 66.9527 27.7292 67.1331 27.4067 67.1331H22.7466C21.4677 67.1331 19.7028 66.9064 18.2008 65.8811C16.6509 64.8232 15.5081 63.0024 15.3635 60.0913C15.0776 54.3378 18.3859 50.5456 22.0533 49.2122C23.2159 48.7895 24.2966 47.9513 25.1911 47.0276C26.0815 46.108 26.7363 45.1566 27.0557 44.5863C27.2878 44.1718 27.812 44.0239 28.2265 44.2561Z" fill="#002378"/>
<path d="M24.9059 62.3259C24.7517 62.5491 24.7118 62.8319 24.7982 63.0891C24.8849 63.347 25.0885 63.5486 25.3473 63.6329C26.1415 63.8915 26.4689 64.387 26.6065 64.8583C26.6623 65.0494 26.687 65.2404 26.6907 65.4127H22.7466C21.629 65.4127 20.265 65.2071 19.1707 64.4602C18.1243 63.7459 17.2034 62.4545 17.0817 60.0059C16.835 55.0398 19.6514 51.9161 22.6412 50.829C24.1415 50.2835 25.4352 49.2486 26.427 48.2244C27.4227 47.196 28.166 46.1245 28.5567 45.4269C28.7889 45.0124 28.641 44.4882 28.2265 44.2561C27.812 44.0239 27.2878 44.1718 27.0557 44.5863C26.7363 45.1566 26.0815 46.108 25.1911 47.0276C24.2966 47.9513 23.2159 48.7895 22.0533 49.2122C18.3859 50.5456 15.0776 54.3378 15.3635 60.0913C15.5081 63.0024 16.6509 64.8232 18.2008 65.8811C19.7028 66.9064 21.4677 67.1331 22.7466 67.1331H27.4067C27.7292 67.1331 28.0247 66.9527 28.172 66.6657C28.3156 66.386 28.3872 66.015 28.4062 65.6601C28.4264 65.2829 28.3922 64.8355 28.2579 64.3759C28.0509 63.6672 27.6072 62.9448 26.814 62.4347C27.0052 62.0402 27.2169 61.5248 27.3662 60.9352C27.7135 59.5632 27.7395 57.6811 26.2428 56.0756C25.9188 55.7281 25.3745 55.709 25.027 56.0329C24.6795 56.3569 24.6604 56.9012 24.9844 57.2487C25.9376 58.2712 25.9635 59.4655 25.6984 60.513C25.5657 61.0372 25.3643 61.4975 25.1934 61.8292C25.1086 61.9937 25.0332 62.1231 24.9806 62.2089C24.9543 62.2518 24.9339 62.2835 24.9211 62.3031C24.9185 62.307 24.9162 62.3105 24.9143 62.3134C24.9114 62.3178 24.9092 62.321 24.9078 62.3231L24.9072 62.324C24.9071 62.3242 24.907 62.3243 24.9069 62.3245C24.9068 62.3247 24.9067 62.3248 24.9066 62.325C24.9065 62.3251 24.9064 62.3252 24.9063 62.3253C24.9062 62.3254 24.9059 62.3258 24.9059 62.3259ZM24.9059 62.3259C24.9058 62.326 24.906 62.3258 24.9059 62.3259Z" stroke="#002378" stroke-linecap="round" stroke-linejoin="round"/>
<path fill-rule="evenodd" clip-rule="evenodd" d="M8.71783 53.0516C9.18634 52.9729 9.62995 53.2889 9.70866 53.7574C10.2642 57.0643 11.5813 58.9323 12.9083 59.9583C14.2542 60.999 15.6753 61.2255 16.5106 61.1446C16.9834 61.0988 17.4039 61.445 17.4497 61.9178C17.4956 62.3907 17.1494 62.8112 16.6765 62.857C15.4218 62.9786 13.5614 62.638 11.8559 61.3193C10.1314 59.9859 8.62689 57.7023 8.01202 54.0424C7.93331 53.5739 8.24931 53.1303 8.71783 53.0516Z" fill="#002378" stroke="#002378" stroke-linecap="round" stroke-linejoin="round"/>
</svg>
