<svg width="10" height="17" viewBox="0 0 10 17" fill="none" xmlns="http://www.w3.org/2000/svg">
<path d="M5 0C2.2425 0 0 2.28872 0 5.10306C0 7.62653 1.80583 9.72303 4.16667 10.1296V12.7577H1.66667V14.4587H4.16667V17H5.83333V14.4587H8.33333V12.7577H5.83333V10.1296C8.19417 9.72218 10 7.62653 10 5.10306C10 2.28872 7.7575 0 5 0ZM5 8.5051C3.16167 8.5051 1.66667 6.97929 1.66667 5.10306C1.66667 3.22684 3.16167 1.70102 5 1.70102C6.83833 1.70102 8.33333 3.22684 8.33333 5.10306C8.33333 6.97929 6.83833 8.5051 5 8.5051Z" fill="#002378"/>
</svg>
