<svg width="100" height="100" viewBox="0 0 100 100" fill="none" xmlns="http://www.w3.org/2000/svg">
<path d="M30.4214 56C30.2747 56 30.1501 55.9487 30.0474 55.846C29.9447 55.7433 29.8934 55.6187 29.8934 55.472V45.088C29.8934 44.9413 29.9447 44.8167 30.0474 44.714C30.1501 44.6113 30.2747 44.56 30.4214 44.56H32.2474C32.4087 44.56 32.5334 44.6113 32.6214 44.714C32.7241 44.8167 32.7754 44.9413 32.7754 45.088V55.472C32.7754 55.6187 32.7241 55.7433 32.6214 55.846C32.5334 55.9487 32.4087 56 32.2474 56H30.4214ZM30.3334 42.668C30.1867 42.668 30.0621 42.6167 29.9594 42.514C29.8567 42.4113 29.8054 42.2867 29.8054 42.14V40.556C29.8054 40.4093 29.8567 40.2847 29.9594 40.182C30.0621 40.0793 30.1867 40.028 30.3334 40.028H32.3354C32.4967 40.028 32.6287 40.0793 32.7314 40.182C32.8341 40.2847 32.8854 40.4093 32.8854 40.556V42.14C32.8854 42.2867 32.8341 42.4113 32.7314 42.514C32.6287 42.6167 32.4967 42.668 32.3354 42.668H30.3334ZM40.6442 56.22C39.5882 56.22 38.6569 56.022 37.8502 55.626C37.0582 55.23 36.4349 54.658 35.9802 53.91C35.5402 53.1473 35.2982 52.2307 35.2542 51.16C35.2395 50.94 35.2322 50.654 35.2322 50.302C35.2322 49.9353 35.2395 49.6347 35.2542 49.4C35.2982 48.3293 35.5402 47.42 35.9802 46.672C36.4349 45.9093 37.0582 45.33 37.8502 44.934C38.6569 44.538 39.5882 44.34 40.6442 44.34C41.5829 44.34 42.3822 44.472 43.0422 44.736C43.7022 44.9853 44.2449 45.3153 44.6702 45.726C45.0955 46.122 45.4109 46.54 45.6162 46.98C45.8362 47.4053 45.9535 47.794 45.9682 48.146C45.9829 48.3073 45.9315 48.4393 45.8142 48.542C45.7115 48.63 45.5869 48.674 45.4402 48.674H43.5042C43.3575 48.674 43.2402 48.6373 43.1522 48.564C43.0789 48.4907 43.0055 48.3807 42.9322 48.234C42.7122 47.6473 42.4189 47.2367 42.0522 47.002C41.7002 46.7527 41.2455 46.628 40.6882 46.628C39.9549 46.628 39.3682 46.8627 38.9282 47.332C38.5029 47.7867 38.2755 48.5127 38.2462 49.51C38.2169 50.0673 38.2169 50.5807 38.2462 51.05C38.2755 52.062 38.5029 52.7953 38.9282 53.25C39.3682 53.7047 39.9549 53.932 40.6882 53.932C41.2602 53.932 41.7222 53.8147 42.0742 53.58C42.4262 53.3307 42.7122 52.9127 42.9322 52.326C43.0055 52.1793 43.0789 52.0693 43.1522 51.996C43.2402 51.9227 43.3575 51.886 43.5042 51.886H45.4402C45.5869 51.886 45.7115 51.9373 45.8142 52.04C45.9315 52.128 45.9829 52.2527 45.9682 52.414C45.9535 52.678 45.8802 52.9787 45.7482 53.316C45.6309 53.6387 45.4329 53.976 45.1542 54.328C44.8902 54.6653 44.5529 54.9807 44.1422 55.274C43.7315 55.5527 43.2329 55.78 42.6462 55.956C42.0742 56.132 41.4069 56.22 40.6442 56.22ZM53.3225 56.22C52.1492 56.22 51.1592 56.0147 50.3525 55.604C49.5605 55.1933 48.9519 54.614 48.5265 53.866C48.1159 53.118 47.8812 52.2453 47.8225 51.248C47.8079 50.984 47.8005 50.6613 47.8005 50.28C47.8005 49.8987 47.8079 49.576 47.8225 49.312C47.8812 48.3 48.1232 47.4273 48.5485 46.694C48.9885 45.946 49.6045 45.3667 50.3965 44.956C51.2032 44.5453 52.1785 44.34 53.3225 44.34C54.4665 44.34 55.4345 44.5453 56.2265 44.956C57.0332 45.3667 57.6492 45.946 58.0745 46.694C58.5145 47.4273 58.7639 48.3 58.8225 49.312C58.8372 49.576 58.8445 49.8987 58.8445 50.28C58.8445 50.6613 58.8372 50.984 58.8225 51.248C58.7639 52.2453 58.5219 53.118 58.0965 53.866C57.6859 54.614 57.0772 55.1933 56.2705 55.604C55.4785 56.0147 54.4959 56.22 53.3225 56.22ZM53.3225 54.042C54.0999 54.042 54.7012 53.8 55.1265 53.316C55.5519 52.8173 55.7865 52.0913 55.8305 51.138C55.8452 50.918 55.8525 50.632 55.8525 50.28C55.8525 49.928 55.8452 49.642 55.8305 49.422C55.7865 48.4687 55.5519 47.75 55.1265 47.266C54.7012 46.7673 54.0999 46.518 53.3225 46.518C52.5452 46.518 51.9439 46.7673 51.5185 47.266C51.0932 47.75 50.8585 48.4687 50.8145 49.422C50.7999 49.642 50.7925 49.928 50.7925 50.28C50.7925 50.632 50.7999 50.918 50.8145 51.138C50.8585 52.0913 51.0932 52.8173 51.5185 53.316C51.9439 53.8 52.5452 54.042 53.3225 54.042ZM61.8101 56C61.6634 56 61.5387 55.9487 61.4361 55.846C61.3334 55.7433 61.2821 55.6187 61.2821 55.472V45.088C61.2821 44.9413 61.3334 44.8167 61.4361 44.714C61.5387 44.6113 61.6634 44.56 61.8101 44.56H63.6141C63.7607 44.56 63.8854 44.6113 63.9881 44.714C64.0907 44.8167 64.1421 44.9413 64.1421 45.088V45.99C64.5234 45.5207 65.0074 45.132 65.5941 44.824C66.1954 44.5013 66.9361 44.34 67.8161 44.34C68.7107 44.34 69.4881 44.5453 70.1481 44.956C70.8081 45.352 71.3141 45.9167 71.6661 46.65C72.0327 47.3833 72.2161 48.2633 72.2161 49.29V55.472C72.2161 55.6187 72.1647 55.7433 72.0621 55.846C71.9594 55.9487 71.8347 56 71.6881 56H69.7521C69.6054 56 69.4807 55.9487 69.3781 55.846C69.2754 55.7433 69.2241 55.6187 69.2241 55.472V49.422C69.2241 48.5713 69.0114 47.904 68.5861 47.42C68.1754 46.936 67.5741 46.694 66.7821 46.694C66.0194 46.694 65.4107 46.936 64.9561 47.42C64.5014 47.904 64.2741 48.5713 64.2741 49.422V55.472C64.2741 55.6187 64.2227 55.7433 64.1201 55.846C64.0174 55.9487 63.8927 56 63.7461 56H61.8101Z" fill="#002378"/>
<rect x="14.5" y="4.5" width="62" height="81" rx="3.5" fill="#C5CDDE" stroke="#002378" stroke-width="3"/>
<rect x="24.5" y="15.5" width="62" height="81" rx="3.5" fill="#E8E9EC" stroke="#002378" stroke-width="3"/>
<circle cx="56" cy="49" r="20" fill="white"/>
<path d="M47 82V66.5H64.5V82L56 77.5L47 82Z" fill="white"/>
<path fill-rule="evenodd" clip-rule="evenodd" d="M56 67.5294C66.2335 67.5294 74.5294 59.2335 74.5294 49C74.5294 38.7665 66.2335 30.4706 56 30.4706C45.7665 30.4706 37.4706 38.7665 37.4706 49C37.4706 59.2335 45.7665 67.5294 56 67.5294ZM56 70C67.598 70 77 60.598 77 49C77 37.402 67.598 28 56 28C44.402 28 35 37.402 35 49C35 60.598 44.402 70 56 70Z" fill="#002378"/>
<path fill-rule="evenodd" clip-rule="evenodd" d="M65.5584 42.3037C66.09 42.7557 66.1501 43.5481 65.6927 44.0734L53.9467 57.5636C53.7162 57.8282 53.3847 57.9861 53.0316 57.9991C52.6786 58.0122 52.336 57.8793 52.0862 57.6324L46.3719 51.9854C45.876 51.4953 45.876 50.7008 46.3719 50.2107C46.8678 49.7206 47.6718 49.7206 48.1678 50.2107L52.9143 54.9014L63.7676 42.4364C64.225 41.9111 65.0268 41.8516 65.5584 42.3037Z" fill="#002378"/>
<path fill-rule="evenodd" clip-rule="evenodd" d="M47.2903 66C48.0029 66 48.5806 66.5638 48.5806 67.2593V79.6113L55.3783 75.9635C55.7654 75.7558 56.2346 75.7558 56.6217 75.9635L63.4194 79.6113V67.2593C63.4194 66.5638 63.9971 66 64.7097 66C65.4223 66 66 66.5638 66 67.2593V81.7407C66 82.1859 65.7591 82.5981 65.3665 82.8247C64.9738 83.0513 64.4877 83.0587 64.088 82.8442L56 78.504L47.912 82.8442C47.5123 83.0587 47.0262 83.0513 46.6335 82.8247C46.2409 82.5981 46 82.1859 46 81.7407V67.2593C46 66.5638 46.5777 66 47.2903 66Z" fill="#002378"/>
</svg>
