<svg width="73" height="69" viewBox="0 0 73 69" fill="none" xmlns="http://www.w3.org/2000/svg">
<path d="M0 8.8055C0 6.47014 0.92772 4.23042 2.57907 2.57907C4.23042 0.92772 6.47014 0 8.8055 0H61.6385C63.9739 0 66.2136 0.92772 67.865 2.57907C69.5163 4.23042 70.444 6.47014 70.444 8.8055V22.6566C69.117 21.4685 67.6361 20.4645 66.0413 19.6715V8.8055C66.0413 7.63782 65.5774 6.51796 64.7517 5.69229C63.9261 4.86661 62.8062 4.40275 61.6385 4.40275H8.8055C7.63782 4.40275 6.51796 4.86661 5.69229 5.69229C4.86661 6.51796 4.40275 7.63782 4.40275 8.8055V44.0275C4.40275 45.1952 4.86661 46.3151 5.69229 47.1407C6.51796 47.9664 7.63782 48.4303 8.8055 48.4303H40.7607C41.0953 48.9278 41.4519 49.4121 41.8261 49.8788V52.833H8.8055C6.47014 52.833 4.23042 51.9053 2.57907 50.2539C0.92772 48.6026 0 46.3629 0 44.0275V8.8055Z" fill="white"/>
<path d="M72.6449 37.4233C72.6449 41.6235 70.9675 45.4275 68.2422 48.21V66.0412C68.2422 66.45 68.1283 66.8507 67.9134 67.1985C67.6985 67.5463 67.391 67.8273 67.0253 68.0101C66.6596 68.193 66.2503 68.2704 65.8431 68.2337C65.4359 68.1969 65.047 68.0476 64.72 67.8023L58.5561 63.1794C58.1751 62.8936 57.7116 62.7391 57.2353 62.7391C56.759 62.7391 56.2955 62.8936 55.9145 63.1794L49.7506 67.8023C49.4236 68.0476 49.0347 68.1969 48.6275 68.2337C48.2203 68.2704 47.811 68.193 47.4453 68.0101C47.0797 67.8273 46.7721 67.5463 46.5572 67.1985C46.3423 66.8507 46.2284 66.45 46.2284 66.0412V48.21C44.4596 46.4048 43.162 44.1921 42.4499 41.7671C41.7379 39.3421 41.6332 36.7792 42.1451 34.3042C42.657 31.8292 43.7699 29.5182 45.3856 27.5746C47.0012 25.6311 49.0701 24.1148 51.41 23.1594C53.7498 22.204 56.2887 21.8387 58.803 22.0959C61.3173 22.353 63.7297 23.2246 65.8277 24.6338C67.9257 26.0431 69.6449 27.9468 70.8337 30.1771C72.0226 32.4074 72.6446 34.8959 72.6449 37.4233ZM57.2353 52.8329C54.871 52.8329 52.6344 52.3046 50.6312 51.3492V60.5377L56.1038 57.2533C56.4457 57.0484 56.8368 56.9402 57.2353 56.9402C57.6339 56.9402 58.0249 57.0484 58.3668 57.2533L63.8394 60.5377V51.3492C61.7759 52.3291 59.5197 52.836 57.2353 52.8329ZM57.2353 48.4302C60.1545 48.4302 62.9542 47.2705 65.0184 45.2063C67.0825 43.1421 68.2422 40.3425 68.2422 37.4233C68.2422 34.5041 67.0825 31.7044 65.0184 29.6402C62.9542 27.5761 60.1545 26.4164 57.2353 26.4164C54.3161 26.4164 51.5165 27.5761 49.4523 29.6402C47.3881 31.7044 46.2284 34.5041 46.2284 37.4233C46.2284 40.3425 47.3881 43.1421 49.4523 45.2063C51.5165 47.2705 54.3161 48.4302 57.2353 48.4302Z" fill="#FECC00"/>
<path d="M13.208 15.4096C13.208 14.8258 13.4399 14.2659 13.8528 13.853C14.2656 13.4402 14.8255 13.2083 15.4094 13.2083H55.0341C55.618 13.2083 56.1779 13.4402 56.5908 13.853C57.0036 14.2659 57.2355 14.8258 57.2355 15.4096C57.2355 15.9935 57.0036 16.5534 56.5908 16.9662C56.1779 17.3791 55.618 17.611 55.0341 17.611H15.4094C14.8255 17.611 14.2656 17.3791 13.8528 16.9662C13.4399 16.5534 13.208 15.9935 13.208 15.4096Z" fill="white"/>
<path d="M15.4094 35.222C14.8255 35.222 14.2656 35.4539 13.8528 35.8668C13.4399 36.2796 13.208 36.8395 13.208 37.4234C13.208 38.0072 13.4399 38.5672 13.8528 38.98C14.2656 39.3928 14.8255 39.6248 15.4094 39.6248H33.0204C33.6042 39.6248 34.1642 39.3928 34.577 38.98C34.9898 38.5672 35.2218 38.0072 35.2218 37.4234C35.2218 36.8395 34.9898 36.2796 34.577 35.8668C34.1642 35.4539 33.6042 35.222 33.0204 35.222H15.4094Z" fill="white"/>
</svg>
