<svg width="176" height="61" viewBox="0 0 176 61" fill="none" xmlns="http://www.w3.org/2000/svg">
<g clip-path="url(#clip0)">
<path d="M7.84185 24.0648V21.3571H35.8581V13.1041H8.00789V10.0683C8.00789 9.15303 8.74 8.40553 9.65324 8.40553H35.8657V0H7.72109C3.45675 0 0 3.4934 0 7.80296V27.7184C0 31.0898 2.702 33.8128 6.03045 33.8128H37.3676V25.7276H9.4872C8.5815 25.7276 7.84185 24.9801 7.84185 24.0648Z" fill="#1F3059"/>
<path d="M75.9654 0H43.2998V33.8128H75.9729C80.4788 33.8128 84.1242 30.1211 84.1242 25.5751V8.23772C84.1242 3.69172 80.4712 0 75.9654 0ZM76.1163 20.6019C76.1163 22.9436 74.237 24.8352 71.9274 24.8352H51.9417V8.73351H71.9274C74.2445 8.73351 76.1163 10.6328 76.1163 12.9668V20.6019Z" fill="#1F3059"/>
<path d="M133.138 0H121.288L108.639 12.6235H98.7138V0H90.2305V33.8128H98.5554V21.0367H109.122L121.447 33.8128H133.78L116.805 16.9102L133.138 0Z" fill="#1F3059"/>
<path d="M150.097 25.7276C148.097 25.7276 146.474 24.0877 146.474 22.0664V21.3571L146.633 13.1041V12.0744C146.633 10.0531 148.256 8.41316 150.256 8.41316H174.491V0H146.346C142.082 0 138.625 3.4934 138.625 7.80296V27.7184C138.625 31.0898 141.327 33.8128 144.655 33.8128H175.993V25.7276H150.097Z" fill="#1F3059"/>
</g>
<path d="M3.69294 47.9098V50.5618H6.81294V51.7708H3.69294V54.5398H7.20294V55.7488H2.21094V46.7008H7.20294V47.9098H3.69294ZM15.5153 48.5858V55.7488H14.0333V54.9038C13.7993 55.1984 13.4917 55.4324 13.1103 55.6058C12.7377 55.7704 12.339 55.8528 11.9143 55.8528C11.351 55.8528 10.844 55.7358 10.3933 55.5018C9.95132 55.2678 9.60032 54.9211 9.34032 54.4618C9.08899 54.0024 8.96332 53.4478 8.96332 52.7978V48.5858H10.4323V52.5768C10.4323 53.2181 10.5927 53.7121 10.9133 54.0588C11.234 54.3968 11.6717 54.5658 12.2263 54.5658C12.781 54.5658 13.2187 54.3968 13.5393 54.0588C13.8687 53.7121 14.0333 53.2181 14.0333 52.5768V48.5858H15.5153ZM18.9527 49.6258C19.1694 49.2618 19.4554 48.9801 19.8107 48.7808C20.1747 48.5728 20.6037 48.4688 21.0977 48.4688V50.0028H20.7207C20.14 50.0028 19.698 50.1501 19.3947 50.4448C19.1 50.7394 18.9527 51.2508 18.9527 51.9788V55.7488H17.4707V48.5858H18.9527V49.6258ZM25.567 55.8658C24.891 55.8658 24.28 55.7141 23.734 55.4108C23.188 55.0988 22.759 54.6654 22.447 54.1108C22.135 53.5474 21.979 52.8974 21.979 52.1608C21.979 51.4328 22.1393 50.7871 22.46 50.2238C22.7806 49.6604 23.2183 49.2271 23.773 48.9238C24.3276 48.6204 24.9473 48.4688 25.632 48.4688C26.3166 48.4688 26.9363 48.6204 27.491 48.9238C28.0456 49.2271 28.4833 49.6604 28.804 50.2238C29.1246 50.7871 29.285 51.4328 29.285 52.1608C29.285 52.8888 29.1203 53.5344 28.791 54.0978C28.4616 54.6611 28.011 55.0988 27.439 55.4108C26.8756 55.7141 26.2516 55.8658 25.567 55.8658ZM25.567 54.5788C25.9483 54.5788 26.3036 54.4878 26.633 54.3058C26.971 54.1238 27.244 53.8508 27.452 53.4868C27.66 53.1228 27.764 52.6808 27.764 52.1608C27.764 51.6408 27.6643 51.2031 27.465 50.8478C27.2656 50.4838 27.0013 50.2108 26.672 50.0288C26.3426 49.8468 25.9873 49.7558 25.606 49.7558C25.2246 49.7558 24.8693 49.8468 24.54 50.0288C24.2193 50.2108 23.9636 50.4838 23.773 50.8478C23.5823 51.2031 23.487 51.6408 23.487 52.1608C23.487 52.9321 23.682 53.5301 24.072 53.9548C24.4706 54.3708 24.969 54.5788 25.567 54.5788ZM32.232 49.6388C32.4833 49.3094 32.8257 49.0321 33.259 48.8068C33.6923 48.5814 34.182 48.4688 34.728 48.4688C35.352 48.4688 35.9197 48.6248 36.431 48.9368C36.951 49.2401 37.3583 49.6691 37.653 50.2238C37.9477 50.7784 38.095 51.4154 38.095 52.1348C38.095 52.8541 37.9477 53.4998 37.653 54.0718C37.3583 54.6351 36.951 55.0771 36.431 55.3978C35.9197 55.7098 35.352 55.8658 34.728 55.8658C34.182 55.8658 33.6967 55.7574 33.272 55.5408C32.8473 55.3154 32.5007 55.0381 32.232 54.7088V59.1548H30.75V48.5858H32.232V49.6388ZM36.587 52.1348C36.587 51.6408 36.483 51.2161 36.275 50.8608C36.0757 50.4968 35.807 50.2238 35.469 50.0418C35.1397 49.8511 34.7843 49.7558 34.403 49.7558C34.0303 49.7558 33.675 49.8511 33.337 50.0418C33.0077 50.2324 32.739 50.5098 32.531 50.8738C32.3317 51.2378 32.232 51.6668 32.232 52.1608C32.232 52.6548 32.3317 53.0881 32.531 53.4608C32.739 53.8248 33.0077 54.1021 33.337 54.2928C33.675 54.4834 34.0303 54.5788 34.403 54.5788C34.7843 54.5788 35.1397 54.4834 35.469 54.2928C35.807 54.0934 36.0757 53.8074 36.275 53.4348C36.483 53.0621 36.587 52.6288 36.587 52.1348ZM46.1255 51.9918C46.1255 52.2604 46.1082 52.5031 46.0735 52.7198H40.6005C40.6439 53.2918 40.8562 53.7511 41.2375 54.0978C41.6189 54.4444 42.0869 54.6178 42.6415 54.6178C43.4389 54.6178 44.0022 54.2841 44.3315 53.6168H45.9305C45.7139 54.2754 45.3195 54.8171 44.7475 55.2418C44.1842 55.6578 43.4822 55.8658 42.6415 55.8658C41.9569 55.8658 41.3415 55.7141 40.7955 55.4108C40.2582 55.0988 39.8335 54.6654 39.5215 54.1108C39.2182 53.5474 39.0665 52.8974 39.0665 52.1608C39.0665 51.4241 39.2139 50.7784 39.5085 50.2238C39.8119 49.6604 40.2322 49.2271 40.7695 48.9238C41.3155 48.6204 41.9395 48.4688 42.6415 48.4688C43.3175 48.4688 43.9199 48.6161 44.4485 48.9108C44.9772 49.2054 45.3889 49.6214 45.6835 50.1588C45.9782 50.6874 46.1255 51.2984 46.1255 51.9918ZM44.5785 51.5238C44.5699 50.9778 44.3749 50.5401 43.9935 50.2108C43.6122 49.8814 43.1399 49.7168 42.5765 49.7168C42.0652 49.7168 41.6275 49.8814 41.2635 50.2108C40.8995 50.5314 40.6829 50.9691 40.6135 51.5238H44.5785ZM47.09 52.1348C47.09 51.4154 47.2373 50.7784 47.532 50.2238C47.8353 49.6691 48.2427 49.2401 48.754 48.9368C49.274 48.6248 49.846 48.4688 50.47 48.4688C51.0333 48.4688 51.523 48.5814 51.939 48.8068C52.3637 49.0234 52.7017 49.2964 52.953 49.6258V48.5858H54.448V55.7488H52.953V54.6828C52.7017 55.0208 52.3593 55.3024 51.926 55.5278C51.4927 55.7531 50.9987 55.8658 50.444 55.8658C49.8287 55.8658 49.2653 55.7098 48.754 55.3978C48.2427 55.0771 47.8353 54.6351 47.532 54.0718C47.2373 53.4998 47.09 52.8541 47.09 52.1348ZM52.953 52.1608C52.953 51.6668 52.849 51.2378 52.641 50.8738C52.4417 50.5098 52.1773 50.2324 51.848 50.0418C51.5187 49.8511 51.1633 49.7558 50.782 49.7558C50.4007 49.7558 50.0453 49.8511 49.716 50.0418C49.3867 50.2238 49.118 50.4968 48.91 50.8608C48.7107 51.2161 48.611 51.6408 48.611 52.1348C48.611 52.6288 48.7107 53.0621 48.91 53.4348C49.118 53.8074 49.3867 54.0934 49.716 54.2928C50.054 54.4834 50.4093 54.5788 50.782 54.5788C51.1633 54.5788 51.5187 54.4834 51.848 54.2928C52.1773 54.1021 52.4417 53.8248 52.641 53.4608C52.849 53.0881 52.953 52.6548 52.953 52.1608ZM60.0085 48.4688C60.5719 48.4688 61.0745 48.5858 61.5165 48.8198C61.9672 49.0538 62.3182 49.4004 62.5695 49.8598C62.8209 50.3191 62.9465 50.8738 62.9465 51.5238V55.7488H61.4775V51.7448C61.4775 51.1034 61.3172 50.6138 60.9965 50.2758C60.6759 49.9291 60.2382 49.7558 59.6835 49.7558C59.1289 49.7558 58.6869 49.9291 58.3575 50.2758C58.0369 50.6138 57.8765 51.1034 57.8765 51.7448V55.7488H56.3945V48.5858H57.8765V49.4048C58.1192 49.1101 58.4269 48.8804 58.7995 48.7158C59.1809 48.5511 59.5839 48.4688 60.0085 48.4688ZM71.1649 46.7138C72.1269 46.7138 72.9675 46.9001 73.6869 47.2728C74.4149 47.6368 74.9739 48.1654 75.3639 48.8588C75.7625 49.5434 75.9619 50.3451 75.9619 51.2638C75.9619 52.1824 75.7625 52.9798 75.3639 53.6558C74.9739 54.3318 74.4149 54.8518 73.6869 55.2158C72.9675 55.5711 72.1269 55.7488 71.1649 55.7488H68.2139V46.7138H71.1649ZM71.1649 54.5398C72.2222 54.5398 73.0325 54.2538 73.5959 53.6818C74.1592 53.1098 74.4409 52.3038 74.4409 51.2638C74.4409 50.2151 74.1592 49.3961 73.5959 48.8068C73.0325 48.2174 72.2222 47.9228 71.1649 47.9228H69.6959V54.5398H71.1649ZM80.5377 55.8658C79.8617 55.8658 79.2507 55.7141 78.7047 55.4108C78.1587 55.0988 77.7297 54.6654 77.4177 54.1108C77.1057 53.5474 76.9497 52.8974 76.9497 52.1608C76.9497 51.4328 77.11 50.7871 77.4307 50.2238C77.7513 49.6604 78.189 49.2271 78.7437 48.9238C79.2983 48.6204 79.918 48.4688 80.6027 48.4688C81.2873 48.4688 81.907 48.6204 82.4617 48.9238C83.0163 49.2271 83.454 49.6604 83.7747 50.2238C84.0953 50.7871 84.2557 51.4328 84.2557 52.1608C84.2557 52.8888 84.091 53.5344 83.7617 54.0978C83.4323 54.6611 82.9817 55.0988 82.4097 55.4108C81.8463 55.7141 81.2223 55.8658 80.5377 55.8658ZM80.5377 54.5788C80.919 54.5788 81.2743 54.4878 81.6037 54.3058C81.9417 54.1238 82.2147 53.8508 82.4227 53.4868C82.6307 53.1228 82.7347 52.6808 82.7347 52.1608C82.7347 51.6408 82.635 51.2031 82.4357 50.8478C82.2363 50.4838 81.972 50.2108 81.6427 50.0288C81.3133 49.8468 80.958 49.7558 80.5767 49.7558C80.1953 49.7558 79.84 49.8468 79.5107 50.0288C79.19 50.2108 78.9343 50.4838 78.7437 50.8478C78.553 51.2031 78.4577 51.6408 78.4577 52.1608C78.4577 52.9321 78.6527 53.5301 79.0427 53.9548C79.4413 54.3708 79.9397 54.5788 80.5377 54.5788ZM88.6067 48.4688C89.1614 48.4688 89.651 48.5814 90.0757 48.8068C90.509 49.0234 90.847 49.2964 91.0897 49.6258V48.5858H92.5847V55.8658C92.5847 56.5244 92.446 57.1094 92.1687 57.6208C91.8914 58.1408 91.4884 58.5481 90.9597 58.8428C90.4397 59.1374 89.8157 59.2848 89.0877 59.2848C88.117 59.2848 87.311 59.0551 86.6697 58.5958C86.0284 58.1451 85.6644 57.5298 85.5777 56.7498H87.0467C87.1594 57.1224 87.3977 57.4214 87.7617 57.6468C88.1344 57.8808 88.5764 57.9978 89.0877 57.9978C89.6857 57.9978 90.1667 57.8158 90.5307 57.4518C90.9034 57.0878 91.0897 56.5591 91.0897 55.8658V54.6698C90.8384 55.0078 90.496 55.2938 90.0627 55.5278C89.638 55.7531 89.1527 55.8658 88.6067 55.8658C87.9827 55.8658 87.4107 55.7098 86.8907 55.3978C86.3794 55.0771 85.972 54.6351 85.6687 54.0718C85.374 53.4998 85.2267 52.8541 85.2267 52.1348C85.2267 51.4154 85.374 50.7784 85.6687 50.2238C85.972 49.6691 86.3794 49.2401 86.8907 48.9368C87.4107 48.6248 87.9827 48.4688 88.6067 48.4688ZM91.0897 52.1608C91.0897 51.6668 90.9857 51.2378 90.7777 50.8738C90.5784 50.5098 90.314 50.2324 89.9847 50.0418C89.6554 49.8511 89.3 49.7558 88.9187 49.7558C88.5374 49.7558 88.182 49.8511 87.8527 50.0418C87.5234 50.2238 87.2547 50.4968 87.0467 50.8608C86.8474 51.2161 86.7477 51.6408 86.7477 52.1348C86.7477 52.6288 86.8474 53.0621 87.0467 53.4348C87.2547 53.8074 87.5234 54.0934 87.8527 54.2928C88.1907 54.4834 88.546 54.5788 88.9187 54.5788C89.3 54.5788 89.6554 54.4834 89.9847 54.2928C90.314 54.1021 90.5784 53.8248 90.7777 53.4608C90.9857 53.0881 91.0897 52.6548 91.0897 52.1608ZM102.887 55.7488L99.3902 51.7058V55.7488H97.9082V46.7138H99.3902V50.8348L102.9 46.7138H104.759L100.833 51.2378L104.824 55.7488H102.887ZM112.7 51.9918C112.7 52.2604 112.682 52.5031 112.648 52.7198H107.175C107.218 53.2918 107.43 53.7511 107.812 54.0978C108.193 54.4444 108.661 54.6178 109.216 54.6178C110.013 54.6178 110.576 54.2841 110.906 53.6168H112.505C112.288 54.2754 111.894 54.8171 111.322 55.2418C110.758 55.6578 110.056 55.8658 109.216 55.8658C108.531 55.8658 107.916 55.7141 107.37 55.4108C106.832 55.0988 106.408 54.6654 106.096 54.1108C105.792 53.5474 105.641 52.8974 105.641 52.1608C105.641 51.4241 105.788 50.7784 106.083 50.2238C106.386 49.6604 106.806 49.2271 107.344 48.9238C107.89 48.6204 108.514 48.4688 109.216 48.4688C109.892 48.4688 110.494 48.6161 111.023 48.9108C111.551 49.2054 111.963 49.6214 112.258 50.1588C112.552 50.6874 112.7 51.2984 112.7 51.9918ZM111.153 51.5238C111.144 50.9778 110.949 50.5401 110.568 50.2108C110.186 49.8814 109.714 49.7168 109.151 49.7168C108.639 49.7168 108.202 49.8814 107.838 50.2108C107.474 50.5314 107.257 50.9691 107.188 51.5238H111.153ZM117.772 48.4688C118.336 48.4688 118.838 48.5858 119.28 48.8198C119.731 49.0538 120.082 49.4004 120.333 49.8598C120.585 50.3191 120.71 50.8738 120.71 51.5238V55.7488H119.241V51.7448C119.241 51.1034 119.081 50.6138 118.76 50.2758C118.44 49.9291 118.002 49.7558 117.447 49.7558C116.893 49.7558 116.451 49.9291 116.121 50.2758C115.801 50.6138 115.64 51.1034 115.64 51.7448V55.7488H114.158V48.5858H115.64V49.4048C115.883 49.1101 116.191 48.8804 116.563 48.7158C116.945 48.5511 117.348 48.4688 117.772 48.4688ZM126.215 48.4688C126.778 48.4688 127.281 48.5858 127.723 48.8198C128.173 49.0538 128.524 49.4004 128.776 49.8598C129.027 50.3191 129.153 50.8738 129.153 51.5238V55.7488H127.684V51.7448C127.684 51.1034 127.523 50.6138 127.203 50.2758C126.882 49.9291 126.444 49.7558 125.89 49.7558C125.335 49.7558 124.893 49.9291 124.564 50.2758C124.243 50.6138 124.083 51.1034 124.083 51.7448V55.7488H122.601V48.5858H124.083V49.4048C124.325 49.1101 124.633 48.8804 125.006 48.7158C125.387 48.5511 125.79 48.4688 126.215 48.4688ZM137.608 51.9918C137.608 52.2604 137.591 52.5031 137.556 52.7198H132.083C132.126 53.2918 132.339 53.7511 132.72 54.0978C133.101 54.4444 133.569 54.6178 134.124 54.6178C134.921 54.6178 135.485 54.2841 135.814 53.6168H137.413C137.196 54.2754 136.802 54.8171 136.23 55.2418C135.667 55.6578 134.965 55.8658 134.124 55.8658C133.439 55.8658 132.824 55.7141 132.278 55.4108C131.741 55.0988 131.316 54.6654 131.004 54.1108C130.701 53.5474 130.549 52.8974 130.549 52.1608C130.549 51.4241 130.696 50.7784 130.991 50.2238C131.294 49.6604 131.715 49.2271 132.252 48.9238C132.798 48.6204 133.422 48.4688 134.124 48.4688C134.8 48.4688 135.402 48.6161 135.931 48.9108C136.46 49.2054 136.871 49.6214 137.166 50.1588C137.461 50.6874 137.608 51.2984 137.608 51.9918ZM136.061 51.5238C136.052 50.9778 135.857 50.5401 135.476 50.2108C135.095 49.8814 134.622 49.7168 134.059 49.7168C133.548 49.7168 133.11 49.8814 132.746 50.2108C132.382 50.5314 132.165 50.9691 132.096 51.5238H136.061ZM140.548 46.1288V55.7488H139.066V46.1288H140.548ZM145.377 51.2118C145.377 50.3278 145.581 49.5348 145.988 48.8328C146.404 48.1308 146.963 47.5848 147.665 47.1948C148.376 46.7961 149.151 46.5968 149.992 46.5968C150.954 46.5968 151.808 46.8351 152.553 47.3118C153.307 47.7798 153.853 48.4471 154.191 49.3138H152.41C152.176 48.8371 151.851 48.4818 151.435 48.2478C151.019 48.0138 150.538 47.8968 149.992 47.8968C149.394 47.8968 148.861 48.0311 148.393 48.2998C147.925 48.5684 147.557 48.9541 147.288 49.4568C147.028 49.9594 146.898 50.5444 146.898 51.2118C146.898 51.8791 147.028 52.4641 147.288 52.9668C147.557 53.4694 147.925 53.8594 148.393 54.1368C148.861 54.4054 149.394 54.5398 149.992 54.5398C150.538 54.5398 151.019 54.4228 151.435 54.1888C151.851 53.9548 152.176 53.5994 152.41 53.1228H154.191C153.853 53.9894 153.307 54.6568 152.553 55.1248C151.808 55.5928 150.954 55.8268 149.992 55.8268C149.143 55.8268 148.367 55.6318 147.665 55.2418C146.963 54.8431 146.404 54.2928 145.988 53.5908C145.581 52.8888 145.377 52.0958 145.377 51.2118ZM157.408 46.1288V55.7488H155.926V46.1288H157.408ZM165.841 48.5858V55.7488H164.359V54.9038C164.125 55.1984 163.817 55.4324 163.436 55.6058C163.063 55.7704 162.664 55.8528 162.24 55.8528C161.676 55.8528 161.169 55.7358 160.719 55.5018C160.277 55.2678 159.926 54.9211 159.666 54.4618C159.414 54.0024 159.289 53.4478 159.289 52.7978V48.5858H160.758V52.5768C160.758 53.2181 160.918 53.7121 161.239 54.0588C161.559 54.3968 161.997 54.5658 162.552 54.5658C163.106 54.5658 163.544 54.3968 163.865 54.0588C164.194 53.7121 164.359 53.2181 164.359 52.5768V48.5858H165.841ZM169.278 49.6518C169.529 49.3051 169.872 49.0234 170.305 48.8068C170.747 48.5814 171.237 48.4688 171.774 48.4688C172.407 48.4688 172.979 48.6204 173.49 48.9238C174.001 49.2271 174.404 49.6604 174.699 50.2238C174.994 50.7784 175.141 51.4154 175.141 52.1348C175.141 52.8541 174.994 53.4998 174.699 54.0718C174.404 54.6351 173.997 55.0771 173.477 55.3978C172.966 55.7098 172.398 55.8658 171.774 55.8658C171.219 55.8658 170.725 55.7574 170.292 55.5408C169.867 55.3241 169.529 55.0468 169.278 54.7088V55.7488H167.796V46.1288H169.278V49.6518ZM173.633 52.1348C173.633 51.6408 173.529 51.2161 173.321 50.8608C173.122 50.4968 172.853 50.2238 172.515 50.0418C172.186 49.8511 171.83 49.7558 171.449 49.7558C171.076 49.7558 170.721 49.8511 170.383 50.0418C170.054 50.2324 169.785 50.5098 169.577 50.8738C169.378 51.2378 169.278 51.6668 169.278 52.1608C169.278 52.6548 169.378 53.0881 169.577 53.4608C169.785 53.8248 170.054 54.1021 170.383 54.2928C170.721 54.4834 171.076 54.5788 171.449 54.5788C171.83 54.5788 172.186 54.4834 172.515 54.2928C172.853 54.0934 173.122 53.8074 173.321 53.4348C173.529 53.0621 173.633 52.6288 173.633 52.1348Z" fill="#1C2335"/>
<defs>
<clipPath id="clip0">
<rect width="176" height="33.8128" fill="white"/>
</clipPath>
</defs>
</svg>
