<svg width="203" height="70" viewBox="0 0 203 70" fill="none" xmlns="http://www.w3.org/2000/svg">
<path d="M9.04486 27.7566V24.6334H41.3591V15.1144H9.23637V11.6129C9.23637 10.5572 10.0808 9.69501 11.1341 9.69501H41.3678V0H8.90557C3.98705 0 0 4.02932 0 9V31.9707C0 35.8592 3.11651 39 6.95557 39H43.1002V29.6745H10.9426C9.89798 29.6745 9.04486 28.8123 9.04486 27.7566Z" fill="#FECC00"/>
<path d="M87.6193 0H49.9426V39H87.628C92.8251 39 97.0298 34.7419 97.0298 29.4985V9.50147C97.0298 4.25806 92.8164 0 87.6193 0ZM87.7934 23.7625C87.7934 26.4633 85.6258 28.6452 82.962 28.6452H59.9102V10.0733H82.962C85.6345 10.0733 87.7934 12.2639 87.7934 14.956V23.7625Z" fill="#FECC00"/>
<path d="M153.562 0H139.895L125.305 14.5601H113.857V0H104.072V39H113.674V24.2639H125.862L140.078 39H154.302L134.724 19.5044L153.562 0Z" fill="#FECC00"/>
<path d="M173.123 29.6745C170.816 29.6745 168.945 27.783 168.945 25.4516V24.6334L169.127 15.1144V13.9267C169.127 11.5953 170.999 9.70381 173.306 9.70381H201.259V0H168.797C163.878 0 159.891 4.02932 159.891 9V31.9707C159.891 35.8592 163.008 39 166.847 39H202.991V29.6745H173.123Z" fill="#FECC00"/>
<path d="M4.22221 54.955V58.015H7.82221V59.41H4.22221V62.605H8.27221V64H2.51221V53.56H8.27221V54.955H4.22221ZM17.8634 55.735V64H16.1534V63.025C15.8834 63.365 15.5284 63.635 15.0884 63.835C14.6584 64.025 14.1984 64.12 13.7084 64.12C13.0584 64.12 12.4734 63.985 11.9534 63.715C11.4434 63.445 11.0384 63.045 10.7384 62.515C10.4484 61.985 10.3034 61.345 10.3034 60.595V55.735H11.9984V60.34C11.9984 61.08 12.1834 61.65 12.5534 62.05C12.9234 62.44 13.4284 62.635 14.0684 62.635C14.7084 62.635 15.2134 62.44 15.5834 62.05C15.9634 61.65 16.1534 61.08 16.1534 60.34V55.735H17.8634ZM21.8296 56.935C22.0796 56.515 22.4096 56.19 22.8196 55.96C23.2396 55.72 23.7346 55.6 24.3046 55.6V57.37H23.8696C23.1996 57.37 22.6896 57.54 22.3396 57.88C21.9996 58.22 21.8296 58.81 21.8296 59.65V64H20.1196V55.735H21.8296V56.935ZM29.4615 64.135C28.6815 64.135 27.9765 63.96 27.3465 63.61C26.7165 63.25 26.2215 62.75 25.8615 62.11C25.5015 61.46 25.3215 60.71 25.3215 59.86C25.3215 59.02 25.5065 58.275 25.8765 57.625C26.2465 56.975 26.7515 56.475 27.3915 56.125C28.0315 55.775 28.7465 55.6 29.5365 55.6C30.3265 55.6 31.0415 55.775 31.6815 56.125C32.3215 56.475 32.8265 56.975 33.1965 57.625C33.5665 58.275 33.7515 59.02 33.7515 59.86C33.7515 60.7 33.5615 61.445 33.1815 62.095C32.8015 62.745 32.2815 63.25 31.6215 63.61C30.9715 63.96 30.2515 64.135 29.4615 64.135ZM29.4615 62.65C29.9015 62.65 30.3115 62.545 30.6915 62.335C31.0815 62.125 31.3965 61.81 31.6365 61.39C31.8765 60.97 31.9965 60.46 31.9965 59.86C31.9965 59.26 31.8815 58.755 31.6515 58.345C31.4215 57.925 31.1165 57.61 30.7365 57.4C30.3565 57.19 29.9465 57.085 29.5065 57.085C29.0665 57.085 28.6565 57.19 28.2765 57.4C27.9065 57.61 27.6115 57.925 27.3915 58.345C27.1715 58.755 27.0615 59.26 27.0615 59.86C27.0615 60.75 27.2865 61.44 27.7365 61.93C28.1965 62.41 28.7715 62.65 29.4615 62.65ZM37.1519 56.95C37.4419 56.57 37.8369 56.25 38.3369 55.99C38.8369 55.73 39.4019 55.6 40.0319 55.6C40.7519 55.6 41.4069 55.78 41.9969 56.14C42.5969 56.49 43.0669 56.985 43.4069 57.625C43.7469 58.265 43.9169 59 43.9169 59.83C43.9169 60.66 43.7469 61.405 43.4069 62.065C43.0669 62.715 42.5969 63.225 41.9969 63.595C41.4069 63.955 40.7519 64.135 40.0319 64.135C39.4019 64.135 38.8419 64.01 38.3519 63.76C37.8619 63.5 37.4619 63.18 37.1519 62.8V67.93H35.4419V55.735H37.1519V56.95ZM42.1769 59.83C42.1769 59.26 42.0569 58.77 41.8169 58.36C41.5869 57.94 41.2769 57.625 40.8869 57.415C40.5069 57.195 40.0969 57.085 39.6569 57.085C39.2269 57.085 38.8169 57.195 38.4269 57.415C38.0469 57.635 37.7369 57.955 37.4969 58.375C37.2669 58.795 37.1519 59.29 37.1519 59.86C37.1519 60.43 37.2669 60.93 37.4969 61.36C37.7369 61.78 38.0469 62.1 38.4269 62.32C38.8169 62.54 39.2269 62.65 39.6569 62.65C40.0969 62.65 40.5069 62.54 40.8869 62.32C41.2769 62.09 41.5869 61.76 41.8169 61.33C42.0569 60.9 42.1769 60.4 42.1769 59.83ZM53.1829 59.665C53.1829 59.975 53.1629 60.255 53.1229 60.505H46.8079C46.8579 61.165 47.1029 61.695 47.5429 62.095C47.9829 62.495 48.5229 62.695 49.1629 62.695C50.0829 62.695 50.7329 62.31 51.1129 61.54H52.9579C52.7079 62.3 52.2529 62.925 51.5929 63.415C50.9429 63.895 50.1329 64.135 49.1629 64.135C48.3729 64.135 47.6629 63.96 47.0329 63.61C46.4129 63.25 45.9229 62.75 45.5629 62.11C45.2129 61.46 45.0379 60.71 45.0379 59.86C45.0379 59.01 45.2079 58.265 45.5479 57.625C45.8979 56.975 46.3829 56.475 47.0029 56.125C47.6329 55.775 48.3529 55.6 49.1629 55.6C49.9429 55.6 50.6379 55.77 51.2479 56.11C51.8579 56.45 52.3329 56.93 52.6729 57.55C53.0129 58.16 53.1829 58.865 53.1829 59.665ZM51.3979 59.125C51.3879 58.495 51.1629 57.99 50.7229 57.61C50.2829 57.23 49.7379 57.04 49.0879 57.04C48.4979 57.04 47.9929 57.23 47.5729 57.61C47.1529 57.98 46.9029 58.485 46.8229 59.125H51.3979ZM54.2957 59.83C54.2957 59 54.4657 58.265 54.8057 57.625C55.1557 56.985 55.6257 56.49 56.2157 56.14C56.8157 55.78 57.4757 55.6 58.1957 55.6C58.8457 55.6 59.4107 55.73 59.8907 55.99C60.3807 56.24 60.7707 56.555 61.0607 56.935V55.735H62.7857V64H61.0607V62.77C60.7707 63.16 60.3757 63.485 59.8757 63.745C59.3757 64.005 58.8057 64.135 58.1657 64.135C57.4557 64.135 56.8057 63.955 56.2157 63.595C55.6257 63.225 55.1557 62.715 54.8057 62.065C54.4657 61.405 54.2957 60.66 54.2957 59.83ZM61.0607 59.86C61.0607 59.29 60.9407 58.795 60.7007 58.375C60.4707 57.955 60.1657 57.635 59.7857 57.415C59.4057 57.195 58.9957 57.085 58.5557 57.085C58.1157 57.085 57.7057 57.195 57.3257 57.415C56.9457 57.625 56.6357 57.94 56.3957 58.36C56.1657 58.77 56.0507 59.26 56.0507 59.83C56.0507 60.4 56.1657 60.9 56.3957 61.33C56.6357 61.76 56.9457 62.09 57.3257 62.32C57.7157 62.54 58.1257 62.65 58.5557 62.65C58.9957 62.65 59.4057 62.54 59.7857 62.32C60.1657 62.1 60.4707 61.78 60.7007 61.36C60.9407 60.93 61.0607 60.43 61.0607 59.86ZM69.2017 55.6C69.8517 55.6 70.4317 55.735 70.9417 56.005C71.4617 56.275 71.8667 56.675 72.1567 57.205C72.4467 57.735 72.5917 58.375 72.5917 59.125V64H70.8967V59.38C70.8967 58.64 70.7117 58.075 70.3417 57.685C69.9717 57.285 69.4667 57.085 68.8267 57.085C68.1867 57.085 67.6767 57.285 67.2967 57.685C66.9267 58.075 66.7417 58.64 66.7417 59.38V64H65.0317V55.735H66.7417V56.68C67.0217 56.34 67.3767 56.075 67.8067 55.885C68.2467 55.695 68.7117 55.6 69.2017 55.6ZM82.0744 53.575C83.1844 53.575 84.1544 53.79 84.9844 54.22C85.8244 54.64 86.4694 55.25 86.9194 56.05C87.3794 56.84 87.6094 57.765 87.6094 58.825C87.6094 59.885 87.3794 60.805 86.9194 61.585C86.4694 62.365 85.8244 62.965 84.9844 63.385C84.1544 63.795 83.1844 64 82.0744 64H78.6694V53.575H82.0744ZM82.0744 62.605C83.2944 62.605 84.2294 62.275 84.8794 61.615C85.5294 60.955 85.8544 60.025 85.8544 58.825C85.8544 57.615 85.5294 56.67 84.8794 55.99C84.2294 55.31 83.2944 54.97 82.0744 54.97H80.3794V62.605H82.0744ZM92.8892 64.135C92.1092 64.135 91.4042 63.96 90.7742 63.61C90.1442 63.25 89.6492 62.75 89.2892 62.11C88.9292 61.46 88.7492 60.71 88.7492 59.86C88.7492 59.02 88.9342 58.275 89.3042 57.625C89.6742 56.975 90.1792 56.475 90.8192 56.125C91.4592 55.775 92.1742 55.6 92.9642 55.6C93.7542 55.6 94.4692 55.775 95.1092 56.125C95.7492 56.475 96.2542 56.975 96.6242 57.625C96.9942 58.275 97.1792 59.02 97.1792 59.86C97.1792 60.7 96.9892 61.445 96.6092 62.095C96.2292 62.745 95.7092 63.25 95.0492 63.61C94.3992 63.96 93.6792 64.135 92.8892 64.135ZM92.8892 62.65C93.3292 62.65 93.7392 62.545 94.1192 62.335C94.5092 62.125 94.8242 61.81 95.0642 61.39C95.3042 60.97 95.4242 60.46 95.4242 59.86C95.4242 59.26 95.3092 58.755 95.0792 58.345C94.8492 57.925 94.5442 57.61 94.1642 57.4C93.7842 57.19 93.3742 57.085 92.9342 57.085C92.4942 57.085 92.0842 57.19 91.7042 57.4C91.3342 57.61 91.0392 57.925 90.8192 58.345C90.5992 58.755 90.4892 59.26 90.4892 59.86C90.4892 60.75 90.7142 61.44 91.1642 61.93C91.6242 62.41 92.1992 62.65 92.8892 62.65ZM102.2 55.6C102.84 55.6 103.405 55.73 103.895 55.99C104.395 56.24 104.785 56.555 105.065 56.935V55.735H106.79V64.135C106.79 64.895 106.63 65.57 106.31 66.16C105.99 66.76 105.525 67.23 104.915 67.57C104.315 67.91 103.595 68.08 102.755 68.08C101.635 68.08 100.705 67.815 99.9646 67.285C99.2246 66.765 98.8046 66.055 98.7046 65.155H100.4C100.53 65.585 100.805 65.93 101.225 66.19C101.655 66.46 102.165 66.595 102.755 66.595C103.445 66.595 104 66.385 104.42 65.965C104.85 65.545 105.065 64.935 105.065 64.135V62.755C104.775 63.145 104.38 63.475 103.88 63.745C103.39 64.005 102.83 64.135 102.2 64.135C101.48 64.135 100.82 63.955 100.22 63.595C99.6296 63.225 99.1596 62.715 98.8096 62.065C98.4696 61.405 98.2996 60.66 98.2996 59.83C98.2996 59 98.4696 58.265 98.8096 57.625C99.1596 56.985 99.6296 56.49 100.22 56.14C100.82 55.78 101.48 55.6 102.2 55.6ZM105.065 59.86C105.065 59.29 104.945 58.795 104.705 58.375C104.475 57.955 104.17 57.635 103.79 57.415C103.41 57.195 103 57.085 102.56 57.085C102.12 57.085 101.71 57.195 101.33 57.415C100.95 57.625 100.64 57.94 100.4 58.36C100.17 58.77 100.055 59.26 100.055 59.83C100.055 60.4 100.17 60.9 100.4 61.33C100.64 61.76 100.95 62.09 101.33 62.32C101.72 62.54 102.13 62.65 102.56 62.65C103 62.65 103.41 62.54 103.79 62.32C104.17 62.1 104.475 61.78 104.705 61.36C104.945 60.93 105.065 60.43 105.065 59.86ZM118.677 64L114.642 59.335V64H112.932V53.575H114.642V58.33L118.692 53.575H120.837L116.307 58.795L120.912 64H118.677ZM129.999 59.665C129.999 59.975 129.979 60.255 129.939 60.505H123.624C123.674 61.165 123.919 61.695 124.359 62.095C124.799 62.495 125.339 62.695 125.979 62.695C126.899 62.695 127.549 62.31 127.929 61.54H129.774C129.524 62.3 129.069 62.925 128.409 63.415C127.759 63.895 126.949 64.135 125.979 64.135C125.189 64.135 124.479 63.96 123.849 63.61C123.229 63.25 122.739 62.75 122.379 62.11C122.029 61.46 121.854 60.71 121.854 59.86C121.854 59.01 122.024 58.265 122.364 57.625C122.714 56.975 123.199 56.475 123.819 56.125C124.449 55.775 125.169 55.6 125.979 55.6C126.759 55.6 127.454 55.77 128.064 56.11C128.674 56.45 129.149 56.93 129.489 57.55C129.829 58.16 129.999 58.865 129.999 59.665ZM128.214 59.125C128.204 58.495 127.979 57.99 127.539 57.61C127.099 57.23 126.554 57.04 125.904 57.04C125.314 57.04 124.809 57.23 124.389 57.61C123.969 57.98 123.719 58.485 123.639 59.125H128.214ZM135.852 55.6C136.502 55.6 137.082 55.735 137.592 56.005C138.112 56.275 138.517 56.675 138.807 57.205C139.097 57.735 139.242 58.375 139.242 59.125V64H137.547V59.38C137.547 58.64 137.362 58.075 136.992 57.685C136.622 57.285 136.117 57.085 135.477 57.085C134.837 57.085 134.327 57.285 133.947 57.685C133.577 58.075 133.392 58.64 133.392 59.38V64H131.682V55.735H133.392V56.68C133.672 56.34 134.027 56.075 134.457 55.885C134.897 55.695 135.362 55.6 135.852 55.6ZM145.593 55.6C146.243 55.6 146.823 55.735 147.333 56.005C147.853 56.275 148.258 56.675 148.548 57.205C148.838 57.735 148.983 58.375 148.983 59.125V64H147.288V59.38C147.288 58.64 147.103 58.075 146.733 57.685C146.363 57.285 145.858 57.085 145.218 57.085C144.578 57.085 144.068 57.285 143.688 57.685C143.318 58.075 143.133 58.64 143.133 59.38V64H141.423V55.735H143.133V56.68C143.413 56.34 143.768 56.075 144.198 55.885C144.638 55.695 145.103 55.6 145.593 55.6ZM158.74 59.665C158.74 59.975 158.72 60.255 158.68 60.505H152.365C152.415 61.165 152.66 61.695 153.1 62.095C153.54 62.495 154.08 62.695 154.72 62.695C155.64 62.695 156.29 62.31 156.67 61.54H158.515C158.265 62.3 157.81 62.925 157.15 63.415C156.5 63.895 155.69 64.135 154.72 64.135C153.93 64.135 153.22 63.96 152.59 63.61C151.97 63.25 151.48 62.75 151.12 62.11C150.77 61.46 150.595 60.71 150.595 59.86C150.595 59.01 150.765 58.265 151.105 57.625C151.455 56.975 151.94 56.475 152.56 56.125C153.19 55.775 153.91 55.6 154.72 55.6C155.5 55.6 156.195 55.77 156.805 56.11C157.415 56.45 157.89 56.93 158.23 57.55C158.57 58.16 158.74 58.865 158.74 59.665ZM156.955 59.125C156.945 58.495 156.72 57.99 156.28 57.61C155.84 57.23 155.295 57.04 154.645 57.04C154.055 57.04 153.55 57.23 153.13 57.61C152.71 57.98 152.46 58.485 152.38 59.125H156.955ZM162.132 52.9V64H160.422V52.9H162.132ZM167.704 58.765C167.704 57.745 167.939 56.83 168.409 56.02C168.889 55.21 169.534 54.58 170.344 54.13C171.164 53.67 172.059 53.44 173.029 53.44C174.139 53.44 175.124 53.715 175.984 54.265C176.854 54.805 177.484 55.575 177.874 56.575H175.819C175.549 56.025 175.174 55.615 174.694 55.345C174.214 55.075 173.659 54.94 173.029 54.94C172.339 54.94 171.724 55.095 171.184 55.405C170.644 55.715 170.219 56.16 169.909 56.74C169.609 57.32 169.459 57.995 169.459 58.765C169.459 59.535 169.609 60.21 169.909 60.79C170.219 61.37 170.644 61.82 171.184 62.14C171.724 62.45 172.339 62.605 173.029 62.605C173.659 62.605 174.214 62.47 174.694 62.2C175.174 61.93 175.549 61.52 175.819 60.97H177.874C177.484 61.97 176.854 62.74 175.984 63.28C175.124 63.82 174.139 64.09 173.029 64.09C172.049 64.09 171.154 63.865 170.344 63.415C169.534 62.955 168.889 62.32 168.409 61.51C167.939 60.7 167.704 59.785 167.704 58.765ZM181.585 52.9V64H179.875V52.9H181.585ZM191.316 55.735V64H189.606V63.025C189.336 63.365 188.981 63.635 188.541 63.835C188.111 64.025 187.651 64.12 187.161 64.12C186.511 64.12 185.926 63.985 185.406 63.715C184.896 63.445 184.491 63.045 184.191 62.515C183.901 61.985 183.756 61.345 183.756 60.595V55.735H185.451V60.34C185.451 61.08 185.636 61.65 186.006 62.05C186.376 62.44 186.881 62.635 187.521 62.635C188.161 62.635 188.666 62.44 189.036 62.05C189.416 61.65 189.606 61.08 189.606 60.34V55.735H191.316ZM195.282 56.965C195.572 56.565 195.967 56.24 196.467 55.99C196.977 55.73 197.542 55.6 198.162 55.6C198.892 55.6 199.552 55.775 200.142 56.125C200.732 56.475 201.197 56.975 201.537 57.625C201.877 58.265 202.047 59 202.047 59.83C202.047 60.66 201.877 61.405 201.537 62.065C201.197 62.715 200.727 63.225 200.127 63.595C199.537 63.955 198.882 64.135 198.162 64.135C197.522 64.135 196.952 64.01 196.452 63.76C195.962 63.51 195.572 63.19 195.282 62.8V64H193.572V52.9H195.282V56.965ZM200.307 59.83C200.307 59.26 200.187 58.77 199.947 58.36C199.717 57.94 199.407 57.625 199.017 57.415C198.637 57.195 198.227 57.085 197.787 57.085C197.357 57.085 196.947 57.195 196.557 57.415C196.177 57.635 195.867 57.955 195.627 58.375C195.397 58.795 195.282 59.29 195.282 59.86C195.282 60.43 195.397 60.93 195.627 61.36C195.867 61.78 196.177 62.1 196.557 62.32C196.947 62.54 197.357 62.65 197.787 62.65C198.227 62.65 198.637 62.54 199.017 62.32C199.407 62.09 199.717 61.76 199.947 61.33C200.187 60.9 200.307 60.4 200.307 59.83Z" fill="white"/>
</svg>
