<svg width="16" height="16" viewBox="0 0 16 16" fill="none" xmlns="http://www.w3.org/2000/svg">
<path d="M15.1537 0H11.6914C11.467 0 11.2517 0.0891823 11.093 0.247928C10.9343 0.406674 10.8451 0.621979 10.8451 0.846479C10.8451 1.07098 10.9343 1.28628 11.093 1.44503C11.2517 1.60378 11.467 1.69296 11.6914 1.69296H13.1106L10.7874 4.01654C8.16417 1.98268 4.36301 2.16968 1.95713 4.57714C-0.652633 7.18776 -0.652633 11.4348 1.95867 14.0439C3.21491 15.2966 4.91648 16 6.6904 16C8.46433 16 10.1659 15.2966 11.4221 14.0439C13.8292 11.636 14.0161 7.8357 11.9826 5.212L14.3073 2.88996V4.30935C14.3073 4.53385 14.3965 4.74915 14.5552 4.9079C14.7139 5.06665 14.9292 5.15583 15.1537 5.15583C15.3781 5.15583 15.5934 5.06665 15.7521 4.9079C15.9108 4.74915 16 4.53385 16 4.30935V0.846479C16 0.735318 15.9781 0.625245 15.9356 0.522546C15.893 0.419846 15.8307 0.326531 15.7521 0.247928C15.6735 0.169325 15.5802 0.106974 15.4775 0.0644345C15.3749 0.0218949 15.2648 0 15.1537 0ZM10.2265 12.848C9.288 13.7847 8.01628 14.3108 6.6904 14.3108C5.36453 14.3108 4.09281 13.7847 3.1543 12.848C1.20428 10.898 1.20428 7.72451 3.1543 5.77453C5.10431 3.82455 8.27688 3.82416 10.2265 5.77453C12.1761 7.72489 12.1765 10.898 10.2265 12.848Z" fill="#002378"/>
</svg>
