<svg width="13" height="21" viewBox="0 0 13 21" fill="none" xmlns="http://www.w3.org/2000/svg">
<path d="M10.625 0.5H1.875C0.820312 0.5 0 1.35938 0 2.375V18.625C0 19.6797 0.820312 20.5 1.875 20.5H10.625C11.6406 20.5 12.5 19.6797 12.5 18.625V2.375C12.5 1.35938 11.6406 0.5 10.625 0.5ZM6.25 19.25C5.54688 19.25 5 18.7031 5 18C5 17.3359 5.54688 16.75 6.25 16.75C6.91406 16.75 7.5 17.3359 7.5 18C7.5 18.7031 6.91406 19.25 6.25 19.25ZM10.625 15.0312C10.625 15.3047 10.3906 15.5 10.1562 15.5H2.34375C2.07031 15.5 1.875 15.3047 1.875 15.0312V2.84375C1.875 2.60938 2.07031 2.375 2.34375 2.375H10.1562C10.3906 2.375 10.625 2.60938 10.625 2.84375V15.0312Z" fill="#002378"/>
</svg>
