<svg width="106" height="106" viewBox="0 0 106 106" fill="none" xmlns="http://www.w3.org/2000/svg">
<path fill-rule="evenodd" clip-rule="evenodd" d="M53 48C47.4772 48 43 52.4772 43 58V81C43 82.1046 42.1046 83 41 83C39.8954 83 39 82.1046 39 81V58C39 50.268 45.268 44 53 44C60.732 44 67 50.268 67 58V81C67 82.1046 66.1046 83 65 83C63.8954 83 63 82.1046 63 81V58C63 52.4772 58.5228 48 53 48Z" fill="white"/>
<path fill-rule="evenodd" clip-rule="evenodd" d="M51.4155 9.31972C52.0656 8.90004 52.8994 8.89302 53.5565 9.30168L94.5565 34.8017C95.4945 35.385 95.7819 36.6183 95.1986 37.5563C94.6152 38.4942 93.3819 38.7817 92.444 38.1983L52.5202 13.3677L14.085 38.1803C13.157 38.7794 11.919 38.5127 11.32 37.5847C10.7209 36.6567 10.9875 35.4188 11.9155 34.8197L51.4155 9.31972Z" fill="white"/>
<path fill-rule="evenodd" clip-rule="evenodd" d="M20 40C21.1046 40 22 40.8954 22 42V79H41C42.1046 79 43 79.8954 43 81C43 82.1046 42.1046 83 41 83H20C18.8954 83 18 82.1046 18 81V42C18 40.8954 18.8954 40 20 40ZM85 40C86.1046 40 87 40.8954 87 42V81C87 82.1046 86.1046 83 85 83H65C63.8954 83 63 82.1046 63 81C63 79.8954 63.8954 79 65 79H83V42C83 40.8954 83.8954 40 85 40Z" fill="white"/>
<path fill-rule="evenodd" clip-rule="evenodd" d="M57.4259 30.8028C57.4261 30.0874 57.6383 29.3881 58.0356 28.7932C58.4333 28.1975 58.9988 27.7332 59.6605 27.4589C60.3221 27.1846 61.0503 27.1127 61.7528 27.2523C62.4553 27.3919 63.1007 27.7366 63.6072 28.243C64.2864 28.9221 64.6679 29.8432 64.6679 30.8036C64.6679 31.7641 64.2864 32.6851 63.6072 33.3643C64.0284 33.7853 64.3393 34.3036 64.5123 34.8735C64.6853 35.4433 64.7151 36.047 64.599 36.6311C64.483 37.2152 64.2247 37.7616 63.847 38.2221C63.4694 38.6825 62.984 39.0427 62.4339 39.2707C61.8837 39.4988 61.2859 39.5876 60.6932 39.5294C60.1006 39.4712 59.5314 39.2677 59.0362 38.937C58.5409 38.6063 58.1349 38.1586 57.854 37.6335C57.5731 37.1084 57.4261 36.5221 57.4259 35.9266H49.3035C49.3035 35.9265 49.3035 35.9267 49.3035 35.9266C49.3032 36.5129 49.1605 37.0908 48.8878 37.6098C48.615 38.1289 48.2201 38.574 47.7373 38.9068C47.2544 39.2396 46.6979 39.4502 46.1157 39.5204C45.5335 39.5906 44.9429 39.5183 44.3948 39.3098C43.8467 39.1014 43.3574 38.7629 42.969 38.3235C42.5806 37.8841 42.3047 37.3569 42.1651 36.7874C42.0254 36.2178 42.0262 35.6228 42.1674 35.0536C42.3085 34.4844 42.5858 33.958 42.9753 33.5196L43.1221 33.3643L42.9762 33.2098C42.5863 32.7714 42.3088 32.2449 42.1675 31.6755C42.0262 31.1061 42.0254 30.5109 42.1651 29.9412C42.3047 29.3714 42.5807 28.8441 42.9693 28.4046C43.3579 27.9651 43.8475 27.6266 44.3958 27.4182C44.9442 27.2098 45.535 27.1378 46.1174 27.2083C46.6998 27.2788 47.2564 27.4897 47.7392 27.8229C48.222 28.1562 48.6166 28.6017 48.8891 29.1212C49.1609 29.6393 49.303 30.2155 49.3035 30.8004C49.3035 30.8021 49.3035 30.8037 49.3035 30.8053L57.4259 30.8053C57.4259 30.8045 57.4259 30.8036 57.4259 30.8028Z" fill="#FECC00"/>
<path fill-rule="evenodd" clip-rule="evenodd" d="M9 90C9 88.8954 9.89543 88 11 88H51C52.1046 88 53 88.8954 53 90C53 91.1046 52.1046 92 51 92H11C9.89543 92 9 91.1046 9 90Z" fill="#FECC00"/>
<path fill-rule="evenodd" clip-rule="evenodd" d="M35 100C35 98.8954 35.8954 98 37 98L96 98C97.1046 98 98 98.8954 98 100C98 101.105 97.1046 102 96 102L37 102C35.8954 102 35 101.105 35 100Z" fill="#FECC00"/>
</svg>
