<svg width="106" height="106" viewBox="0 0 106 106" fill="none" xmlns="http://www.w3.org/2000/svg">
<path fill-rule="evenodd" clip-rule="evenodd" d="M58.1015 3.28459C61.2206 2.872 64.5031 2.97836 67.3 3.16454C70.7332 3.39307 73.4018 4.99958 75.5599 6.7952C76.6344 7.68922 77.6165 8.65947 78.5083 9.55588C78.6296 9.67777 78.7488 9.79786 78.8662 9.91613C79.6344 10.6902 80.3253 11.3863 81.0145 11.998C81.8893 12.7744 83.1552 13.1285 84.6425 13.1955C85.9599 13.2548 87.2074 13.0836 88.1808 12.9501C88.3009 12.9336 88.4168 12.9177 88.5282 12.9029C89.0822 12.8292 89.6418 12.9906 90.0714 13.348C91.4909 14.5291 92.0737 16.1941 92.2992 17.4937C92.5213 18.7736 92.4604 20.0661 92.2325 20.8625C92.1936 20.9984 92.1404 21.1299 92.0738 21.2546C88.7563 27.4654 82.8304 32.1611 74.3755 32.1611C70.9053 32.1611 67.4145 30.9228 64.6995 29.5901C63.4779 28.9905 62.3554 28.3426 61.4085 27.729C60.4718 30.1126 59.0492 31.9011 57.2578 33.09C55.4233 34.3075 53.3285 34.8127 51.2331 34.8127C49.5665 34.8127 48.0574 34.5801 46.777 33.9637C45.4418 33.321 44.4774 32.3187 43.8578 31.025C43.2649 29.787 43.0195 28.3517 42.949 26.8329C42.8779 25.3041 42.9795 23.5582 43.1728 21.6281C43.5669 17.694 44.3119 14.7767 45.3463 12.4695C46.3919 10.1374 47.692 8.52111 49.0612 7.15403C51.4003 4.81856 54.6524 3.77519 57.8269 3.32234C57.8965 3.31241 57.9662 3.30274 58.036 3.29334C58.0579 3.29006 58.0797 3.28714 58.1015 3.28459ZM56.874 7.55602C54.7744 8.02245 53.0688 8.80512 51.8874 9.98467C50.7718 11.0985 49.7956 12.3232 48.9963 14.1059C48.1859 15.9135 47.5177 18.3848 47.1529 22.0268C46.9669 23.8847 46.887 25.4061 46.9446 26.6472C47.0028 27.8985 47.1965 28.7359 47.4654 29.2972C47.7075 29.8029 48.0276 30.1264 48.512 30.3596C49.0514 30.6193 49.8971 30.8127 51.2331 30.8127C52.6867 30.8127 53.9783 30.4657 55.0459 29.7572C56.1037 29.0552 57.0681 27.915 57.7453 26.1105C57.9773 25.4922 58.1743 24.7989 58.3279 24.0252C58.3312 24.0073 58.3347 23.9895 58.3385 23.9717C59.0376 20.3886 58.8145 15.0937 56.874 7.55602ZM62.4556 23.5901C63.0407 19.3892 62.6034 13.9416 60.8724 7.04893C62.9244 6.94308 65.0408 7.02301 67.0344 7.15571C69.292 7.30598 71.176 8.3511 73.0015 9.87001C73.9188 10.6333 74.7861 11.486 75.6727 12.3771C75.7869 12.4919 75.902 12.6079 76.0178 12.7247C76.7771 13.4901 77.5674 14.2868 78.3593 14.9896C80.216 16.6375 82.5544 17.1055 84.4626 17.1914C85.7762 17.2506 87.0333 17.1317 87.9783 17.0133C88.1485 17.3281 88.2787 17.72 88.3581 18.1775C88.4249 18.5627 88.4447 18.9377 88.4361 19.2496C88.432 19.3988 88.4217 19.5241 88.4097 19.6203C85.6396 24.6407 80.9866 28.1611 74.3755 28.1611C71.7755 28.1611 68.9217 27.2067 66.462 25.9993C64.7102 25.1395 63.3017 24.2236 62.4556 23.5901Z" fill="white"/>
<path fill-rule="evenodd" clip-rule="evenodd" d="M66.8655 27.1272C67.9701 27.1272 68.8655 28.0226 68.8655 29.1272V37.0673C71.7149 38.7602 75.2683 42.9288 75.5653 50.3388C75.8821 58.2441 71.4843 63.0009 68.345 64.9193L67.8287 69.6258C69.7817 70.7412 70.8858 72.4509 71.4183 74.182C72.0462 76.2235 71.8962 78.3028 71.5674 79.6437C71.348 80.5383 70.546 81.1674 69.6249 81.1674H59.0396C57.935 81.1674 57.0396 80.2719 57.0396 79.1674C57.0396 78.0628 57.935 77.1674 59.0396 77.1674H67.8516C67.8508 76.5874 67.7795 75.9578 67.595 75.358C67.2522 74.2433 66.5413 73.2538 65.0345 72.7374C64.1493 72.4341 63.5928 71.5575 63.6948 70.6274L64.4832 63.4403C64.5602 62.7387 65.0012 62.1297 65.6437 61.8376C67.5516 60.9704 71.8451 57.3996 71.5685 50.499C71.2833 43.3835 67.4687 40.6569 66.1883 40.1962C65.3947 39.9106 64.8655 39.1578 64.8655 38.3143V29.1272C64.8655 28.0226 65.7609 27.1272 66.8655 27.1272Z" fill="white"/>
<path d="M73.5823 15.1136C73.5823 16.51 72.4502 17.6421 71.0538 17.6421C69.6574 17.6421 68.5254 16.51 68.5254 15.1136C68.5254 13.7172 69.6574 12.5852 71.0538 12.5852C72.4502 12.5852 73.5823 13.7172 73.5823 15.1136Z" fill="white"/>
<path fill-rule="evenodd" clip-rule="evenodd" d="M49.2748 31.9107C50.2385 32.4504 50.5822 33.6692 50.0425 34.6329C49.1857 36.1627 47.5591 38.507 45.3811 40.7564C43.2122 42.9963 40.3768 45.2664 37.082 46.4644C30.6142 48.816 24.5111 55.5762 25.046 66.3438C25.0479 66.3821 25.0487 66.4206 25.0484 66.459C25.0414 67.336 25.1422 68.8854 25.4778 70.5285C25.8193 72.201 26.3642 73.769 27.1275 74.8376C27.7695 75.7365 27.5613 76.9856 26.6625 77.6276C25.7637 78.2696 24.5146 78.0614 23.8726 77.1626C22.6359 75.4312 21.9469 73.2302 21.5587 71.3289C21.1711 69.431 21.0438 67.6313 21.0482 66.4859C20.4467 53.9193 27.684 45.6252 35.7151 42.7051C38.2247 41.7927 40.5649 39.98 42.5075 37.9739C44.4408 35.9773 45.8615 33.9122 46.5526 32.6783C47.0923 31.7146 48.3111 31.3709 49.2748 31.9107Z" fill="white"/>
<path fill-rule="evenodd" clip-rule="evenodd" d="M6.66847 51.0678C7.75777 50.8847 8.78918 51.6194 8.97219 52.7088C10.1889 59.9509 12.8328 63.9991 15.4591 66.1947C18.1028 68.405 20.8906 68.8789 22.6631 68.7071C23.7626 68.6006 24.7402 69.4055 24.8467 70.5049C24.9532 71.6043 24.1483 72.582 23.0489 72.6885C20.2657 72.9582 16.401 72.196 12.8934 69.2635C9.36828 66.3163 6.36198 61.3149 5.02747 53.3715C4.84446 52.2822 5.57916 51.2508 6.66847 51.0678Z" fill="white"/>
<path fill-rule="evenodd" clip-rule="evenodd" d="M82.2363 62.903C83.9176 62.6809 85.6819 62.7387 87.1757 62.8382C89.0608 62.9637 90.5202 63.8463 91.6865 64.8167C92.2668 65.2996 92.796 65.8225 93.2719 66.3009C93.3369 66.3662 93.4006 66.4304 93.4633 66.4935C93.8735 66.9068 94.2375 67.2735 94.6004 67.5957C95.0221 67.9699 95.6482 68.1536 96.4222 68.1884C97.1072 68.2192 97.756 68.1303 98.276 68.0591C98.3402 68.0503 98.4024 68.0418 98.4624 68.0338C98.8087 67.9877 99.1584 68.0886 99.4269 68.312C100.231 68.9808 100.554 69.9174 100.679 70.6328C100.801 71.3359 100.769 72.0541 100.639 72.5114C100.614 72.5964 100.581 72.6785 100.539 72.7564C98.744 76.1177 95.5269 78.6709 90.9376 78.6709C89.0468 78.6709 87.1556 77.9973 85.6957 77.2807C85.1172 76.9968 84.5782 76.6919 84.1075 76.396C83.5961 77.5967 82.8461 78.5134 81.9084 79.1357C80.8947 79.8085 79.7406 80.0852 78.5935 80.0852C77.6894 80.0852 76.8541 79.9593 76.1372 79.6142C75.386 79.2526 74.8421 78.6869 74.4943 77.9608C74.1632 77.2695 74.03 76.4764 73.9918 75.6541C73.9533 74.8254 74.0085 73.8839 74.1119 72.8511C74.3234 70.7393 74.7244 69.1628 75.2864 67.9093C75.8554 66.6402 76.5636 65.7601 77.3056 65.0193C78.5938 63.7331 80.3744 63.1678 82.0848 62.9238C82.1215 62.9185 82.1582 62.9134 82.1951 62.9085C82.2088 62.9064 82.2225 62.9046 82.2363 62.903ZM81.4692 65.5824C80.4513 65.8299 79.6378 66.2235 79.072 66.7885C78.4885 67.371 77.9826 68.0063 77.5676 68.932C77.1456 69.8733 76.7927 71.171 76.5995 73.1003C76.5006 74.088 76.4589 74.8892 76.4891 75.538C76.5195 76.1932 76.6205 76.6125 76.7491 76.8809C76.861 77.1145 77.0022 77.256 77.2216 77.3616C77.4753 77.4838 77.8961 77.5852 78.5935 77.5852C79.3395 77.5852 79.9916 77.4074 80.526 77.0527C81.0542 76.7022 81.5461 76.127 81.8956 75.1959C82.0155 74.8765 82.1177 74.5171 82.1977 74.1148C82.1997 74.1037 82.2019 74.0926 82.2042 74.0815C82.5636 72.2367 82.4599 69.4976 81.4692 65.5824ZM84.7756 73.833C85.0641 71.6196 84.8337 68.7931 83.9668 65.2658C84.9803 65.2259 86.0208 65.2668 87.0097 65.3327C88.1601 65.4092 89.129 65.941 90.0875 66.7385C90.5696 67.1396 91.027 67.5891 91.4996 68.0641C91.5602 68.125 91.6214 68.1867 91.6831 68.2489C92.0877 68.6568 92.5138 69.0864 92.9409 69.4655C93.9763 70.3844 95.2726 70.6392 96.3098 70.6859C96.9645 70.7154 97.5932 70.6635 98.0855 70.6055C98.1399 70.732 98.1847 70.8835 98.2153 71.0602C98.2487 71.2525 98.2586 71.4403 98.2543 71.5957C98.2527 71.6563 98.2491 71.7049 98.2454 71.7416C96.7923 74.3547 94.3719 76.1709 90.9376 76.1709C89.5906 76.1709 88.0976 75.6748 86.7973 75.0365C85.9264 74.609 85.2212 74.1577 84.7756 73.833Z" fill="#FECC00"/>
<path fill-rule="evenodd" clip-rule="evenodd" d="M86.9324 75.6194C87.6228 75.6194 88.1824 76.179 88.1824 76.8694V81.0015C89.7412 81.9702 91.5982 84.2417 91.7559 88.1762C91.9255 92.4065 89.6097 94.9868 87.894 96.0692L87.6412 98.3734C88.6636 98.9944 89.2497 99.917 89.536 100.848C89.8827 101.975 89.7997 103.118 89.6183 103.858C89.4812 104.417 88.98 104.811 88.4043 104.811H80.6245C80.2756 104.811 79.9426 104.665 79.706 104.408C79.4694 104.152 79.3506 103.809 79.3785 103.461C79.5491 101.333 80.1552 96.074 80.4346 93.728C80.5163 93.0424 81.1382 92.5529 81.8237 92.6346C82.5092 92.7162 82.9987 93.3381 82.9171 94.0236C82.6852 95.9702 82.2373 99.8486 81.9941 102.311H87.2703C87.2577 102.071 87.22 101.822 87.1464 101.583C86.9779 101.035 86.6359 100.558 85.8964 100.304C85.3432 100.115 84.9953 99.5668 85.0591 98.9854L85.4796 95.1519C85.5277 94.7134 85.8034 94.3327 86.2049 94.1502C87.1687 93.7121 89.4019 91.8685 89.2579 88.2764C89.1086 84.5499 87.1169 83.1646 86.5092 82.9459C86.0132 82.7674 85.6824 82.2969 85.6824 81.7698V76.8694C85.6824 76.179 86.2421 75.6194 86.9324 75.6194Z" fill="#FECC00"/>
<path fill-rule="evenodd" clip-rule="evenodd" d="M75.3281 97.2668C75.3281 96.5765 75.8878 96.0168 76.5781 96.0168H81.0736C81.764 96.0168 82.3236 96.5765 82.3236 97.2668C82.3236 97.9572 81.764 98.5168 81.0736 98.5168H76.5781C75.8878 98.5168 75.3281 97.9572 75.3281 97.2668Z" fill="#FECC00"/>
<path d="M90.5152 69.3946C90.5152 70.1394 89.9114 70.7432 89.1665 70.7432C88.4217 70.7432 87.8179 70.1394 87.8179 69.3946C87.8179 68.6497 88.4217 68.0459 89.1665 68.0459C89.9114 68.0459 90.5152 68.6497 90.5152 69.3946Z" fill="#FECC00"/>
<path fill-rule="evenodd" clip-rule="evenodd" d="M89.1665 68.2432C88.5307 68.2432 88.0152 68.7587 88.0152 69.3946C88.0152 70.0304 88.5307 70.5459 89.1665 70.5459C89.8024 70.5459 90.3179 70.0304 90.3179 69.3946C90.3179 68.7587 89.8024 68.2432 89.1665 68.2432ZM89.1665 70.7432C89.9114 70.7432 90.5152 70.1394 90.5152 69.3946C90.5152 68.6497 89.9114 68.0459 89.1665 68.0459C88.4217 68.0459 87.8179 68.6497 87.8179 69.3946C87.8179 70.1394 88.4217 70.7432 89.1665 70.7432Z" fill="#FECC00"/>
<path fill-rule="evenodd" clip-rule="evenodd" d="M77.6389 78.194C78.2412 78.5314 78.456 79.2931 78.1187 79.8955C77.6541 80.725 76.777 81.9882 75.6041 83.1996C74.4368 84.4051 72.9018 85.6369 71.1084 86.289C67.7306 87.5171 64.5276 91.0517 64.8088 96.7113C64.9469 99.491 65.9853 100.916 67.1289 101.696C68.342 102.524 69.8695 102.76 71.1456 102.76H75.4614C75.4472 102.654 75.4253 102.544 75.3934 102.435C75.2537 101.957 74.9274 101.45 74.0918 101.178C73.7159 101.056 73.42 100.763 73.294 100.388C73.1684 100.014 73.2263 99.6037 73.45 99.2796C73.4504 99.279 73.4509 99.2784 73.4513 99.2778C73.4515 99.2775 73.4511 99.2781 73.4513 99.2778L73.4647 99.2575C73.4783 99.2367 73.5007 99.202 73.5298 99.1545C73.5882 99.0592 73.6728 98.9141 73.7682 98.7291C73.9609 98.355 74.1868 97.8379 74.3352 97.2519C74.6315 96.0812 74.5938 94.7925 73.5645 93.6884C73.0937 93.1834 73.1215 92.3924 73.6265 91.9217C74.1314 91.451 74.9224 91.4787 75.3931 91.9837C77.2122 93.935 77.1744 96.2232 76.7587 97.8654C76.6039 98.4769 76.3933 99.0206 76.1916 99.4607C77.0555 100.079 77.5535 100.914 77.7932 101.734C77.9581 102.299 78 102.848 77.9752 103.311C77.9521 103.742 77.865 104.212 77.6756 104.581C77.4616 104.998 77.0323 105.26 76.5636 105.26H71.1456C69.6352 105.26 67.5249 104.993 65.7194 103.761C63.8443 102.481 62.4834 100.287 62.3119 96.8353C61.9739 90.0317 65.8917 85.5256 70.2541 83.9394C71.5567 83.4658 72.7823 82.5199 73.8081 81.4605C74.8281 80.4071 75.5765 79.3184 75.9375 78.6738C76.2748 78.0715 77.0366 77.8567 77.6389 78.194Z" fill="#FECC00"/>
<path fill-rule="evenodd" clip-rule="evenodd" d="M54.7931 88.3917C55.4739 88.2774 56.1185 88.7365 56.2329 89.4174C56.8765 93.2482 58.2702 95.3638 59.6298 96.5005C61.0004 97.6464 62.4381 97.886 63.3373 97.7988C64.0244 97.7323 64.6354 98.2353 64.702 98.9225C64.7686 99.6096 64.2655 100.221 63.5784 100.287C62.0476 100.436 59.9368 100.016 58.0263 98.4185C56.1048 96.8121 54.4847 94.1007 53.7675 89.8316C53.6531 89.1507 54.1123 88.5061 54.7931 88.3917Z" fill="#FECC00"/>
<path fill-rule="evenodd" clip-rule="evenodd" d="M44.2363 55.903C45.9176 55.6809 47.6819 55.7387 49.1757 55.8382C51.0608 55.9637 52.5202 56.8463 53.6865 57.8167C54.2668 58.2996 54.796 58.8225 55.2719 59.3009C55.3369 59.3662 55.4006 59.4304 55.4633 59.4935C55.8735 59.9068 56.2375 60.2735 56.6004 60.5957C57.0221 60.9699 57.6482 61.1536 58.4222 61.1884C59.1072 61.2192 59.756 61.1303 60.276 61.0591C60.3402 61.0503 60.4024 61.0418 60.4624 61.0338C60.8087 60.9877 61.1584 61.0886 61.4269 61.312C62.2307 61.9808 62.5544 62.9174 62.6785 63.6328C62.8005 64.3359 62.7694 65.0541 62.6386 65.5114C62.6143 65.5964 62.581 65.6785 62.5394 65.7564C60.744 69.1177 57.5269 71.6709 52.9376 71.6709C51.0468 71.6709 49.1556 70.9973 47.6957 70.2807C47.1172 69.9968 46.5782 69.6919 46.1075 69.396C45.5961 70.5967 44.8461 71.5134 43.9084 72.1357C42.8947 72.8085 41.7406 73.0852 40.5935 73.0852C39.6894 73.0852 38.8541 72.9593 38.1372 72.6142C37.386 72.2526 36.8421 71.6869 36.4943 70.9608C36.1632 70.2695 36.03 69.4764 35.9918 68.6541C35.9533 67.8254 36.0085 66.8839 36.1119 65.8511C36.3234 63.7393 36.7244 62.1628 37.2864 60.9093C37.8554 59.6402 38.5636 58.7601 39.3056 58.0193C40.5938 56.7331 42.3744 56.1678 44.0848 55.9238C44.1215 55.9185 44.1582 55.9134 44.1951 55.9085C44.2088 55.9064 44.2225 55.9046 44.2363 55.903ZM43.4692 58.5824C42.4513 58.8299 41.6378 59.2235 41.072 59.7885C40.4885 60.371 39.9826 61.0063 39.5676 61.932C39.1456 62.8733 38.7927 64.171 38.5995 66.1003C38.5006 67.088 38.4589 67.8892 38.4891 68.538C38.5195 69.1932 38.6205 69.6125 38.7491 69.8809C38.861 70.1145 39.0022 70.256 39.2216 70.3616C39.4753 70.4838 39.8961 70.5852 40.5935 70.5852C41.3395 70.5852 41.9916 70.4074 42.526 70.0527C43.0542 69.7022 43.5461 69.127 43.8956 68.1959C44.0155 67.8765 44.1177 67.5171 44.1977 67.1148C44.1997 67.1037 44.2019 67.0926 44.2042 67.0815C44.5636 65.2367 44.4599 62.4976 43.4692 58.5824ZM46.7756 66.833C47.0641 64.6196 46.8337 61.7931 45.9668 58.2658C46.9803 58.2259 48.0208 58.2668 49.0097 58.3327C50.1601 58.4092 51.129 58.941 52.0875 59.7385C52.5696 60.1396 53.027 60.5891 53.4996 61.0641C53.5602 61.125 53.6214 61.1867 53.6831 61.2489C54.0877 61.6568 54.5138 62.0864 54.9409 62.4655C55.9763 63.3844 57.2726 63.6392 58.3098 63.6859C58.9645 63.7154 59.5932 63.6635 60.0855 63.6055C60.1399 63.732 60.1847 63.8835 60.2153 64.0602C60.2487 64.2525 60.2586 64.4403 60.2543 64.5957C60.2527 64.6563 60.2491 64.7049 60.2454 64.7416C58.7923 67.3547 56.3719 69.1709 52.9376 69.1709C51.5906 69.1709 50.0976 68.6748 48.7973 68.0365C47.9264 67.609 47.2212 67.1577 46.7756 66.833Z" fill="#FECC00"/>
<path fill-rule="evenodd" clip-rule="evenodd" d="M48.9324 68.6194C49.6228 68.6194 50.1824 69.179 50.1824 69.8694V74.0015C51.7412 74.9702 53.5982 77.2417 53.7559 81.1762C53.9255 85.4065 51.6097 87.9868 49.894 89.0692L49.6412 91.3734C50.6636 91.9944 51.2497 92.917 51.536 93.8476C51.8827 94.9748 51.7997 96.1184 51.6183 96.8583C51.4812 97.4174 50.98 97.8106 50.4043 97.8106H42.6245C42.2756 97.8106 41.9426 97.6648 41.706 97.4085C41.4694 97.1521 41.3506 96.8085 41.3785 96.4607C41.5491 94.3332 42.1552 89.074 42.4346 86.728C42.5163 86.0424 43.1382 85.5529 43.8237 85.6346C44.5092 85.7162 44.9987 86.3381 44.9171 87.0236C44.6852 88.9702 44.2373 92.8486 43.9941 95.3106H49.2703C49.2577 95.0712 49.22 94.8216 49.1464 94.5826C48.9779 94.0346 48.6359 93.5577 47.8964 93.3042C47.3432 93.1146 46.9953 92.5668 47.0591 91.9854L47.4796 88.1519C47.5277 87.7134 47.8034 87.3327 48.2049 87.1502C49.1687 86.7121 51.4019 84.8685 51.2579 81.2764C51.1086 77.5499 49.1169 76.1646 48.5092 75.9459C48.0132 75.7674 47.6824 75.2969 47.6824 74.7698V69.8694C47.6824 69.179 48.2421 68.6194 48.9324 68.6194Z" fill="#FECC00"/>
<path fill-rule="evenodd" clip-rule="evenodd" d="M37.3281 90.2668C37.3281 89.5765 37.8878 89.0168 38.5781 89.0168H43.0736C43.764 89.0168 44.3236 89.5765 44.3236 90.2668C44.3236 90.9572 43.764 91.5168 43.0736 91.5168H38.5781C37.8878 91.5168 37.3281 90.9572 37.3281 90.2668Z" fill="#FECC00"/>
<path d="M52.5152 62.3946C52.5152 63.1394 51.9114 63.7432 51.1665 63.7432C50.4217 63.7432 49.8179 63.1394 49.8179 62.3946C49.8179 61.6497 50.4217 61.0459 51.1665 61.0459C51.9114 61.0459 52.5152 61.6497 52.5152 62.3946Z" fill="#FECC00"/>
<path fill-rule="evenodd" clip-rule="evenodd" d="M51.1665 61.2432C50.5307 61.2432 50.0152 61.7587 50.0152 62.3946C50.0152 63.0304 50.5307 63.5459 51.1665 63.5459C51.8024 63.5459 52.3179 63.0304 52.3179 62.3946C52.3179 61.7587 51.8024 61.2432 51.1665 61.2432ZM51.1665 63.7432C51.9114 63.7432 52.5152 63.1394 52.5152 62.3946C52.5152 61.6497 51.9114 61.0459 51.1665 61.0459C50.4217 61.0459 49.8179 61.6497 49.8179 62.3946C49.8179 63.1394 50.4217 63.7432 51.1665 63.7432Z" fill="#FECC00"/>
<path fill-rule="evenodd" clip-rule="evenodd" d="M39.6389 71.194C40.2412 71.5314 40.456 72.2931 40.1187 72.8955C39.6541 73.725 38.777 74.9882 37.6041 76.1996C36.4368 77.4051 34.9018 78.6369 33.1084 79.289C29.7306 80.5171 26.5276 84.0517 26.8088 89.7113C26.9469 92.491 27.9853 93.9155 29.1289 94.6961C30.342 95.5241 31.8695 95.76 33.1456 95.76H37.4614C37.4472 95.6538 37.4253 95.5444 37.3934 95.4354C37.2537 94.9569 36.9274 94.4503 36.0918 94.1782C35.7159 94.0558 35.42 93.7627 35.294 93.3879C35.1684 93.0145 35.2263 92.6037 35.45 92.2796C35.4504 92.279 35.4509 92.2784 35.4513 92.2778C35.4515 92.2775 35.4511 92.2781 35.4513 92.2778L35.4647 92.2575C35.4783 92.2367 35.5007 92.202 35.5298 92.1545C35.5882 92.0592 35.6728 91.9141 35.7682 91.7291C35.9609 91.355 36.1868 90.8379 36.3352 90.2519C36.6315 89.0812 36.5938 87.7925 35.5645 86.6884C35.0937 86.1834 35.1215 85.3924 35.6265 84.9217C36.1314 84.451 36.9224 84.4787 37.3931 84.9837C39.2122 86.935 39.1744 89.2232 38.7587 90.8654C38.6039 91.4769 38.3933 92.0206 38.1916 92.4607C39.0555 93.0792 39.5535 93.9138 39.7932 94.7345C39.9581 95.2991 40 95.8477 39.9752 96.3109C39.9521 96.7416 39.865 97.2121 39.6756 97.5809C39.4616 97.9978 39.0323 98.26 38.5636 98.26H33.1456C31.6352 98.26 29.5249 97.9933 27.7194 96.7609C25.8443 95.481 24.4834 93.2872 24.3119 89.8353C23.9739 83.0317 27.8917 78.5256 32.2541 76.9394C33.5567 76.4658 34.7823 75.5199 35.8081 74.4605C36.8281 73.4071 37.5765 72.3184 37.9375 71.6738C38.2748 71.0715 39.0366 70.8567 39.6389 71.194Z" fill="#FECC00"/>
<path fill-rule="evenodd" clip-rule="evenodd" d="M16.7931 81.3917C17.4739 81.2774 18.1185 81.7365 18.2329 82.4174C18.8765 86.2482 20.2702 88.3638 21.6298 89.5005C23.0004 90.6464 24.4381 90.886 25.3373 90.7988C26.0244 90.7323 26.6354 91.2353 26.702 91.9225C26.7686 92.6096 26.2655 93.2206 25.5784 93.2872C24.0476 93.4355 21.9368 93.0158 20.0263 91.4185C18.1048 89.8121 16.4847 87.1007 15.7675 82.8316C15.6531 82.1507 16.1123 81.5061 16.7931 81.3917Z" fill="#FECC00"/>
</svg>
