<svg width="106" height="106" viewBox="0 0 106 106" fill="none" xmlns="http://www.w3.org/2000/svg">
<path fill-rule="evenodd" clip-rule="evenodd" d="M62.5236 8.30267C65.8376 7.86406 69.3291 7.97673 72.3109 8.17521C75.9337 8.41636 78.7541 10.1113 81.0449 12.0173C82.1858 12.9666 83.2295 13.9976 84.1806 14.9536C84.3097 15.0833 84.4367 15.2113 84.5618 15.3373C85.381 16.1628 86.1213 16.9086 86.8599 17.5641C87.8258 18.4214 89.2117 18.8029 90.8122 18.8749C92.2304 18.9388 93.573 18.7545 94.6107 18.6121C94.7388 18.5945 94.8622 18.5776 94.9805 18.5618C95.5345 18.4881 96.0941 18.6495 96.5237 19.0069C98.0039 20.2386 98.6162 21.9793 98.8539 23.3493C99.0883 24.6996 99.0223 26.0573 98.786 26.8832C98.7471 27.0191 98.6939 27.1505 98.6273 27.2752C95.1074 33.8648 88.8275 38.8383 79.8669 38.8383C76.1944 38.8383 72.4921 37.5269 69.6046 36.1095C68.2452 35.4423 67.0029 34.7196 65.9705 34.0425C64.9813 36.6395 63.4576 38.575 61.5344 39.8513C59.6032 41.133 57.3955 41.6667 55.1818 41.6667C53.4151 41.6667 51.8275 41.4198 50.4866 40.7743C49.0907 40.1023 48.0834 39.0559 47.4351 37.7022C46.8135 36.4043 46.5535 34.8931 46.4787 33.2821C46.4033 31.6609 46.511 29.8062 46.7169 27.7498C47.1362 23.5632 47.9284 20.4663 49.0243 18.0219C50.1314 15.5527 51.5073 13.8417 52.9593 12.392C55.4249 9.93025 58.8603 8.82375 62.234 8.34249C62.3085 8.33185 62.3832 8.32151 62.4579 8.31144C62.4798 8.30815 62.5017 8.30522 62.5236 8.30267ZM61.2957 12.5687C58.9835 13.0661 57.0932 13.9169 55.7855 15.2226C54.5871 16.4191 53.535 17.7385 52.6743 19.6583C51.8024 21.603 51.0871 24.2539 50.697 28.1484C50.4983 30.1326 50.4124 31.7629 50.4743 33.0964C50.5368 34.44 50.7451 35.3531 51.0427 35.9744C51.3136 36.54 51.6765 36.9077 52.2216 37.1702C52.8216 37.459 53.7458 37.6667 55.1818 37.6667C56.7537 37.6667 58.1582 37.2912 59.3225 36.5185C60.477 35.7523 61.522 34.5122 62.2529 32.5645C62.5033 31.8975 62.7154 31.1504 62.8807 30.3175C62.884 30.2996 62.8875 30.2817 62.8913 30.2638C63.6469 26.3935 63.3975 20.684 61.2957 12.5687ZM67.0094 29.8885C67.6509 25.39 67.183 19.5229 65.2948 12.0611C67.5425 11.9349 69.865 12.0213 72.0452 12.1664C74.4925 12.3293 76.5282 13.4628 78.4865 15.0922C79.4702 15.9106 80.3992 16.8241 81.345 17.7748C81.4671 17.8975 81.59 18.0214 81.7136 18.146C82.5237 18.9627 83.3634 19.8091 84.2047 20.5558C86.1525 22.2845 88.6109 22.7799 90.6323 22.8709C92.0652 22.9354 93.4346 22.8 94.4488 22.6705C94.6617 23.0365 94.8199 23.4977 94.9128 24.0331C94.9858 24.4535 95.0073 24.8624 94.998 25.2031C94.9933 25.3722 94.9813 25.5144 94.9673 25.6233C94.9666 25.628 94.966 25.6326 94.9654 25.6371C91.993 31.0386 86.9853 34.8383 79.8669 34.8383C77.0646 34.8383 73.9993 33.8108 71.3671 32.5188C69.451 31.5783 67.9142 30.5732 67.0094 29.8885Z" fill="white"/>
<path fill-rule="evenodd" clip-rule="evenodd" d="M71.8564 35.8687C72.961 35.8687 73.8564 36.7641 73.8564 37.8687V44.2809C76.865 46.0371 80.6855 50.4472 81.0029 58.3662C81.3405 66.7896 76.626 71.8316 73.3092 73.8335L72.7417 79.0064C74.8395 80.1762 76.019 81.9917 76.5853 83.8326C77.2464 85.9822 77.0885 88.175 76.7422 89.5874C76.5229 90.482 75.7209 91.1111 74.7998 91.1111H59.2422C58.684 91.1111 58.1512 90.8778 57.7726 90.4676C57.3939 90.0574 57.204 89.5077 57.2486 88.9513C57.5887 84.7083 58.7995 74.202 59.3586 69.5073C59.4892 68.4105 60.4843 67.6273 61.5811 67.7579C62.6779 67.8885 63.4612 68.8836 63.3305 69.9804C62.8498 74.0171 61.9025 82.2239 61.4302 87.1111H73.0406C73.0511 86.4443 72.9774 85.7087 72.762 85.0085C72.3859 83.7856 71.6006 82.6932 69.9466 82.1264C69.0614 81.8231 68.5049 80.9465 68.6069 80.0164L69.4479 72.3502C69.5249 71.6486 69.9659 71.0396 70.6084 70.7475C72.6827 69.8046 77.3037 65.9515 77.0061 58.5264C76.6999 50.8865 72.5998 47.9279 71.1793 47.4167C70.3856 47.1311 69.8564 46.3783 69.8564 45.5348V37.8687C69.8564 36.7641 70.7519 35.8687 71.8564 35.8687Z" fill="white"/>
<path fill-rule="evenodd" clip-rule="evenodd" d="M49.1514 76.5254C49.1514 75.4208 50.0468 74.5254 51.1514 74.5254H60.1413C61.2458 74.5254 62.1413 75.4208 62.1413 76.5254C62.1413 77.63 61.2458 78.5254 60.1413 78.5254H51.1514C50.0468 78.5254 49.1514 77.63 49.1514 76.5254Z" fill="white"/>
<path d="M79.0199 20.7878C79.0199 22.2773 77.8124 23.4848 76.3229 23.4848C74.8335 23.4848 73.626 22.2773 73.626 20.7878C73.626 19.2983 74.8335 18.0908 76.3229 18.0908C77.8124 18.0908 79.0199 19.2983 79.0199 20.7878Z" fill="white"/>
<path fill-rule="evenodd" clip-rule="evenodd" d="M53.0276 38.8208C53.9913 39.3606 54.335 40.5794 53.7953 41.5431C52.8869 43.165 51.1588 45.6563 48.8437 48.0472C46.5377 50.4286 43.5298 52.8347 40.0416 54.103C33.0902 56.6305 26.5421 63.8931 27.1158 75.4394C27.3986 81.1326 29.5397 84.135 31.9726 85.7957C34.5169 87.5324 37.6881 88.0102 40.2867 88.0102H49.4567C49.4482 87.6098 49.3908 87.1656 49.261 86.7213C48.941 85.6255 48.1797 84.4734 46.3332 83.8722C45.7317 83.6764 45.2583 83.2075 45.0567 82.6078C44.8557 82.0099 44.9485 81.3523 45.307 80.8335C45.3072 80.8333 45.3068 80.8338 45.307 80.8335C45.3072 80.8333 45.3078 80.8324 45.308 80.8321C45.3082 80.8319 45.3084 80.8316 45.3086 80.8313C45.3088 80.8309 45.309 80.8306 45.3093 80.8302C45.3096 80.8298 45.3099 80.8294 45.3101 80.829L45.3114 80.827C45.3147 80.8221 45.3198 80.8146 45.3266 80.8044C45.3311 80.7976 45.3364 80.7896 45.3424 80.7804C45.3722 80.7349 45.4197 80.6611 45.4807 80.5615C45.603 80.3619 45.7784 80.061 45.9755 79.6786C46.3728 78.9074 46.841 77.8372 47.1496 76.6183C47.7661 74.183 47.7057 71.4063 45.4895 69.0289C44.7363 68.2209 44.7807 66.9554 45.5887 66.2022C46.3966 65.449 47.6622 65.4934 48.4153 66.3014C51.8951 70.0342 51.8347 74.4102 51.0272 77.6C50.6802 78.971 50.1879 80.1693 49.7433 81.0863C51.5876 82.2724 52.6193 83.952 53.1006 85.5998C53.4127 86.6683 53.4923 87.7084 53.4453 88.5856C53.4011 89.4107 53.2346 90.2733 52.9007 90.9237C52.5582 91.5908 51.8714 92.0102 51.1215 92.0102H40.2867C37.3132 92.0102 33.2097 91.4831 29.7176 89.0994C26.1141 86.6397 23.457 82.4064 23.1207 75.6379C22.4561 62.2611 30.148 53.4441 38.6748 50.3438C41.3778 49.361 43.8905 47.4123 45.97 45.2646C48.0404 43.1265 49.5627 40.9145 50.3053 39.5885C50.8451 38.6248 52.0639 38.2811 53.0276 38.8208Z" fill="white"/>
<path fill-rule="evenodd" clip-rule="evenodd" d="M7.66847 59.2701C8.75777 59.0871 9.78918 59.8218 9.97219 60.9111C11.2639 68.5998 14.3261 72.943 17.4113 75.3284C20.5407 77.7481 23.8446 78.2747 25.7867 78.0865C26.8862 77.98 27.8638 78.7849 27.9703 79.8843C28.0768 80.9838 27.2719 81.9614 26.1725 82.0679C23.2552 82.3506 18.9299 81.5588 14.9646 78.4929C10.955 75.3927 7.45703 70.0831 6.02747 61.5739C5.84446 60.4846 6.57916 59.4531 7.66847 59.2701Z" fill="white"/>
<path fill-rule="evenodd" clip-rule="evenodd" d="M3 100C3 98.8954 3.89543 98 5 98H101C102.105 98 103 98.8954 103 100C103 101.105 102.105 102 101 102H5C3.89543 102 3 101.105 3 100Z" fill="#FECC00"/>
</svg>
