<svg width="100" height="100" viewBox="0 0 100 100" fill="none" xmlns="http://www.w3.org/2000/svg">
<path d="M1.5 38.5C1.5 28.0066 10.0066 19.5 20.5 19.5H78.5C88.9934 19.5 97.5 28.0066 97.5 38.5C97.5 48.9934 88.9934 57.5 78.5 57.5H20.5C10.0066 57.5 1.5 48.9934 1.5 38.5Z" fill="#E8E9EC" stroke="#002378" stroke-width="3"/>
<path d="M26.261 43.16C25.269 43.16 24.437 43.016 23.765 42.728C23.1037 42.4293 22.597 42.0453 22.245 41.576C21.9037 41.096 21.7223 40.5947 21.701 40.072C21.701 39.976 21.733 39.896 21.797 39.832C21.861 39.768 21.941 39.736 22.037 39.736H23.461C23.5997 39.736 23.701 39.768 23.765 39.832C23.8397 39.8853 23.9037 39.9547 23.957 40.04C24.021 40.2427 24.1437 40.4453 24.325 40.648C24.5063 40.84 24.7517 41 25.061 41.128C25.381 41.256 25.781 41.32 26.261 41.32C27.029 41.32 27.5997 41.192 27.973 40.936C28.357 40.68 28.549 40.3333 28.549 39.896C28.549 39.5867 28.4477 39.3413 28.245 39.16C28.0423 38.968 27.7277 38.7973 27.301 38.648C26.885 38.488 26.3303 38.3227 25.637 38.152C24.837 37.96 24.165 37.7307 23.621 37.464C23.0877 37.1867 22.6823 36.84 22.405 36.424C22.1383 36.008 22.005 35.48 22.005 34.84C22.005 34.2213 22.1703 33.672 22.501 33.192C22.8423 32.712 23.3223 32.3333 23.941 32.056C24.5703 31.7787 25.317 31.64 26.181 31.64C26.8743 31.64 27.4877 31.736 28.021 31.928C28.5543 32.1093 28.997 32.3547 29.349 32.664C29.701 32.9627 29.9677 33.288 30.149 33.64C30.341 33.9813 30.4423 34.3173 30.453 34.648C30.453 34.7333 30.421 34.8133 30.357 34.888C30.3037 34.952 30.2237 34.984 30.117 34.984H28.629C28.5437 34.984 28.4583 34.9627 28.373 34.92C28.2877 34.8773 28.2183 34.7973 28.165 34.68C28.101 34.3493 27.893 34.0667 27.541 33.832C27.189 33.5973 26.7357 33.48 26.181 33.48C25.605 33.48 25.141 33.5867 24.789 33.8C24.437 34.0133 24.261 34.344 24.261 34.792C24.261 35.0907 24.3463 35.3413 24.517 35.544C24.6983 35.736 24.981 35.9067 25.365 36.056C25.7597 36.2053 26.277 36.3653 26.917 36.536C27.8237 36.7387 28.565 36.9733 29.141 37.24C29.717 37.5067 30.1383 37.848 30.405 38.264C30.6717 38.6693 30.805 39.1867 30.805 39.816C30.805 40.52 30.613 41.1227 30.229 41.624C29.8557 42.1147 29.3277 42.4933 28.645 42.76C27.9623 43.0267 27.1677 43.16 26.261 43.16ZM32.8306 43C32.724 43 32.6333 42.9627 32.5586 42.888C32.484 42.8133 32.4466 42.7227 32.4466 42.616V35.064C32.4466 34.9573 32.484 34.8667 32.5586 34.792C32.6333 34.7173 32.724 34.68 32.8306 34.68H34.1586C34.276 34.68 34.3666 34.7173 34.4306 34.792C34.5053 34.8667 34.5426 34.9573 34.5426 35.064V42.616C34.5426 42.7227 34.5053 42.8133 34.4306 42.888C34.3666 42.9627 34.276 43 34.1586 43H32.8306ZM32.7666 33.304C32.66 33.304 32.5693 33.2667 32.4946 33.192C32.42 33.1173 32.3826 33.0267 32.3826 32.92V31.768C32.3826 31.6613 32.42 31.5707 32.4946 31.496C32.5693 31.4213 32.66 31.384 32.7666 31.384H34.2226C34.34 31.384 34.436 31.4213 34.5106 31.496C34.5853 31.5707 34.6226 31.6613 34.6226 31.768V32.92C34.6226 33.0267 34.5853 33.1173 34.5106 33.192C34.436 33.2667 34.34 33.304 34.2226 33.304H32.7666ZM40.4254 46.52C39.6467 46.52 39.0067 46.4187 38.5054 46.216C38.004 46.0133 37.6094 45.768 37.3214 45.48C37.0334 45.192 36.8254 44.904 36.6974 44.616C36.58 44.3387 36.516 44.12 36.5054 43.96C36.4947 43.8533 36.5267 43.7573 36.6014 43.672C36.6867 43.5973 36.7827 43.56 36.8894 43.56H38.2814C38.388 43.56 38.4734 43.5813 38.5374 43.624C38.6014 43.6773 38.6547 43.768 38.6974 43.896C38.7614 44.0347 38.8467 44.184 38.9534 44.344C39.06 44.504 39.22 44.6373 39.4334 44.744C39.6574 44.8613 39.9614 44.92 40.3454 44.92C40.7507 44.92 41.092 44.8613 41.3694 44.744C41.6467 44.6267 41.8547 44.4293 41.9934 44.152C42.1427 43.8747 42.2174 43.4907 42.2174 43V41.912C41.9614 42.2213 41.6307 42.472 41.2254 42.664C40.8307 42.856 40.34 42.952 39.7534 42.952C39.188 42.952 38.692 42.8613 38.2654 42.68C37.8494 42.488 37.5027 42.2267 37.2254 41.896C36.948 41.5547 36.7347 41.1547 36.5854 40.696C36.4467 40.2373 36.3667 39.7307 36.3454 39.176C36.3347 38.888 36.3347 38.6 36.3454 38.312C36.3667 37.7787 36.4467 37.2827 36.5854 36.824C36.7347 36.3653 36.948 35.9653 37.2254 35.624C37.5027 35.272 37.8494 35 38.2654 34.808C38.692 34.616 39.188 34.52 39.7534 34.52C40.3614 34.52 40.8734 34.6373 41.2894 34.872C41.7054 35.096 42.0467 35.3787 42.3134 35.72V35.08C42.3134 34.9627 42.3507 34.8667 42.4254 34.792C42.5 34.7173 42.5907 34.68 42.6974 34.68H43.9934C44.1 34.68 44.1907 34.7173 44.2654 34.792C44.34 34.8667 44.3774 34.9627 44.3774 35.08L44.3934 42.792C44.3934 43.56 44.2494 44.2213 43.9614 44.776C43.6734 45.3307 43.236 45.7573 42.6494 46.056C42.0734 46.3653 41.332 46.52 40.4254 46.52ZM40.3454 41.256C40.7827 41.256 41.1347 41.16 41.4014 40.968C41.668 40.776 41.8654 40.5253 41.9934 40.216C42.1214 39.9067 42.196 39.592 42.2174 39.272C42.228 39.1333 42.2334 38.9573 42.2334 38.744C42.2334 38.5307 42.228 38.36 42.2174 38.232C42.196 37.9013 42.1214 37.5867 41.9934 37.288C41.8654 36.9787 41.668 36.728 41.4014 36.536C41.1347 36.3333 40.7827 36.232 40.3454 36.232C39.908 36.232 39.556 36.3333 39.2894 36.536C39.0227 36.728 38.8307 36.984 38.7134 37.304C38.6067 37.624 38.5427 37.976 38.5214 38.36C38.5 38.616 38.5 38.8773 38.5214 39.144C38.5427 39.5173 38.6067 39.8693 38.7134 40.2C38.8307 40.52 39.0227 40.776 39.2894 40.968C39.556 41.16 39.908 41.256 40.3454 41.256ZM46.9088 43C46.8021 43 46.7114 42.9627 46.6368 42.888C46.5621 42.8133 46.5247 42.7227 46.5247 42.616V35.064C46.5247 34.9573 46.5621 34.8667 46.6368 34.792C46.7114 34.7173 46.8021 34.68 46.9088 34.68H48.2208C48.3274 34.68 48.4181 34.7173 48.4928 34.792C48.5674 34.8667 48.6048 34.9573 48.6048 35.064V35.72C48.8821 35.3787 49.2341 35.096 49.6608 34.872C50.0981 34.6373 50.6368 34.52 51.2768 34.52C51.9274 34.52 52.4928 34.6693 52.9728 34.968C53.4528 35.256 53.8208 35.6667 54.0768 36.2C54.3434 36.7333 54.4768 37.3733 54.4768 38.12V42.616C54.4768 42.7227 54.4394 42.8133 54.3648 42.888C54.2901 42.9627 54.1994 43 54.0928 43H52.6848C52.5781 43 52.4874 42.9627 52.4128 42.888C52.3381 42.8133 52.3008 42.7227 52.3008 42.616V38.216C52.3008 37.5973 52.1461 37.112 51.8368 36.76C51.5381 36.408 51.1008 36.232 50.5248 36.232C49.9701 36.232 49.5274 36.408 49.1968 36.76C48.8661 37.112 48.7008 37.5973 48.7008 38.216V42.616C48.7008 42.7227 48.6634 42.8133 48.5888 42.888C48.5141 42.9627 48.4234 43 48.3168 43H46.9088ZM63.2534 43.16C62.6027 43.16 62.0374 43.016 61.5574 42.728C61.088 42.4293 60.7254 42.0133 60.4694 41.48C60.2134 40.936 60.0854 40.296 60.0854 39.56V35.064C60.0854 34.9573 60.1227 34.8667 60.1974 34.792C60.272 34.7173 60.3627 34.68 60.4694 34.68H61.8774C61.9947 34.68 62.0854 34.7173 62.1494 34.792C62.224 34.8667 62.2614 34.9573 62.2614 35.064V39.464C62.2614 40.7867 62.8427 41.448 64.0054 41.448C64.56 41.448 64.9974 41.272 65.3174 40.92C65.648 40.568 65.8134 40.0827 65.8134 39.464V35.064C65.8134 34.9573 65.8507 34.8667 65.9254 34.792C66 34.7173 66.0907 34.68 66.1974 34.68H67.6054C67.712 34.68 67.8027 34.7173 67.8774 34.792C67.952 34.8667 67.9894 34.9573 67.9894 35.064V42.616C67.9894 42.7227 67.952 42.8133 67.8774 42.888C67.8027 42.9627 67.712 43 67.6054 43H66.3094C66.192 43 66.096 42.9627 66.0214 42.888C65.9574 42.8133 65.9254 42.7227 65.9254 42.616V41.96C65.6374 42.3333 65.28 42.6267 64.8534 42.84C64.4267 43.0533 63.8934 43.16 63.2534 43.16ZM70.5029 46.04C70.3962 46.04 70.3055 46.0027 70.2309 45.928C70.1562 45.8533 70.1189 45.7627 70.1189 45.656V35.064C70.1189 34.9573 70.1562 34.8667 70.2309 34.792C70.3055 34.7173 70.3962 34.68 70.5029 34.68H71.7669C71.8842 34.68 71.9749 34.7173 72.0389 34.792C72.1135 34.8667 72.1509 34.9573 72.1509 35.064V35.704C72.4069 35.3627 72.7429 35.08 73.1589 34.856C73.5749 34.632 74.0922 34.52 74.7109 34.52C75.2762 34.52 75.7669 34.6107 76.1829 34.792C76.5989 34.9733 76.9455 35.2347 77.2229 35.576C77.5002 35.9067 77.7135 36.3013 77.8629 36.76C78.0122 37.2187 78.0975 37.7253 78.1189 38.28C78.1295 38.4613 78.1349 38.648 78.1349 38.84C78.1349 39.032 78.1295 39.224 78.1189 39.416C78.1082 39.9493 78.0282 40.4453 77.8789 40.904C77.7295 41.352 77.5109 41.7467 77.2229 42.088C76.9455 42.4187 76.5989 42.68 76.1829 42.872C75.7669 43.064 75.2762 43.16 74.7109 43.16C74.1349 43.16 73.6442 43.0587 73.2389 42.856C72.8335 42.6427 72.5029 42.3653 72.2469 42.024V45.656C72.2469 45.7627 72.2095 45.8533 72.1349 45.928C72.0709 46.0027 71.9802 46.04 71.8629 46.04H70.5029ZM74.1189 41.448C74.5775 41.448 74.9349 41.352 75.1909 41.16C75.4469 40.9573 75.6335 40.696 75.7509 40.376C75.8682 40.056 75.9375 39.704 75.9589 39.32C75.9695 39 75.9695 38.68 75.9589 38.36C75.9375 37.976 75.8682 37.624 75.7509 37.304C75.6335 36.984 75.4469 36.728 75.1909 36.536C74.9349 36.3333 74.5775 36.232 74.1189 36.232C73.6815 36.232 73.3242 36.3333 73.0469 36.536C72.7802 36.7387 72.5829 37 72.4549 37.32C72.3375 37.6293 72.2682 37.9493 72.2469 38.28C72.2362 38.472 72.2309 38.6747 72.2309 38.888C72.2309 39.1013 72.2362 39.3093 72.2469 39.512C72.2575 39.832 72.3322 40.1413 72.4709 40.44C72.6095 40.728 72.8122 40.968 73.0789 41.16C73.3455 41.352 73.6922 41.448 74.1189 41.448Z" fill="#002378"/>
<path fill-rule="evenodd" clip-rule="evenodd" d="M61.7787 50.1306C62.0112 50.0245 62.2692 49.9875 62.5221 50.0239C62.7751 50.0603 63.0122 50.1686 63.2053 50.3359L87.2933 71.1999C87.4956 71.3746 87.6408 71.6061 87.7099 71.8643C87.779 72.1225 87.7689 72.3955 87.681 72.6479C87.593 72.9003 87.4312 73.1204 87.2166 73.2797C87.002 73.439 86.7444 73.5301 86.4773 73.5412L77.5867 73.9332L82.736 85.2506C82.8825 85.5721 82.8954 85.9385 82.7719 86.2695C82.6484 86.6005 82.3986 86.8689 82.0773 87.0159L76.336 89.6292C76.0145 89.7757 75.6481 89.7886 75.3171 89.6651C74.9861 89.5416 74.7176 89.2918 74.5707 88.9706L69.408 77.6532L63.3013 84.0959C63.1175 84.29 62.8797 84.4243 62.6186 84.4815C62.3575 84.5386 62.0852 84.516 61.8372 84.4166C61.5891 84.3171 61.3766 84.1454 61.2273 83.9237C61.0781 83.702 60.9989 83.4405 61 83.1732V51.3439C60.9999 51.0883 61.0732 50.838 61.2112 50.6229C61.3493 50.4078 61.5462 50.2369 61.7787 50.1306Z" fill="white"/>
<path fill-rule="evenodd" clip-rule="evenodd" d="M61.7787 50.1308C62.0112 50.0247 62.2692 49.9877 62.5221 50.0241C62.7751 50.0605 63.0122 50.1688 63.2053 50.3362L87.2933 71.2002C87.4956 71.3748 87.6408 71.6063 87.7099 71.8645C87.779 72.1227 87.7689 72.3957 87.681 72.6481C87.593 72.9005 87.4312 73.1206 87.2166 73.28C87.002 73.4393 86.7444 73.5304 86.4773 73.5415L77.5867 73.9335L82.736 85.2508C82.8825 85.5723 82.8954 85.9388 82.7719 86.2698C82.6484 86.6007 82.3986 86.8692 82.0773 87.0162L76.336 89.6295C76.0145 89.776 75.6481 89.7889 75.3171 89.6654C74.9861 89.5419 74.7176 89.2921 74.5707 88.9708L69.408 77.6535L63.3013 84.0962C63.1175 84.2902 62.8797 84.4245 62.6186 84.4817C62.3575 84.5389 62.0852 84.5163 61.8372 84.4168C61.5891 84.3174 61.3766 84.1456 61.2273 83.9239C61.0781 83.7022 60.9989 83.4408 61 83.1735V51.3442C60.9999 51.0886 61.0732 50.8383 61.2112 50.6232C61.3493 50.4081 61.5462 50.2372 61.7787 50.1308ZM63.6667 54.2642V79.8348L68.8347 74.3842C68.985 74.2256 69.1719 74.1065 69.379 74.0371C69.5861 73.9678 69.8071 73.9504 70.0225 73.9865C70.238 74.0225 70.4412 74.111 70.6145 74.244C70.7877 74.3771 70.9256 74.5507 71.016 74.7495L76.4427 86.6508L79.7547 85.1415L74.3387 73.2402C74.2481 73.0415 74.2077 72.8237 74.2209 72.6058C74.2342 72.388 74.3008 72.1767 74.4148 71.9905C74.5288 71.8043 74.6867 71.649 74.8748 71.5382C75.0629 71.4274 75.2753 71.3644 75.4933 71.3548L83.0133 71.0242L63.6667 54.2642Z" fill="#002378"/>
</svg>
