<svg width="26" height="26" viewBox="0 0 26 26" fill="none" xmlns="http://www.w3.org/2000/svg">
<path d="M13 0C5.824 0 0 5.824 0 13C0 20.176 5.824 26 13 26C20.176 26 26 20.176 26 13C26 5.824 20.176 0 13 0ZM6.591 21.164C7.15 19.994 10.556 18.85 13 18.85C15.444 18.85 18.863 19.994 19.409 21.164C17.641 22.568 15.418 23.4 13 23.4C10.582 23.4 8.359 22.568 6.591 21.164ZM21.268 19.279C19.409 17.017 14.898 16.25 13 16.25C11.102 16.25 6.591 17.017 4.732 19.279C3.35095 17.477 2.6017 15.2704 2.6 13C2.6 7.267 7.267 2.6 13 2.6C18.733 2.6 23.4 7.267 23.4 13C23.4 15.366 22.594 17.537 21.268 19.279ZM13 5.2C10.478 5.2 8.45 7.228 8.45 9.75C8.45 12.272 10.478 14.3 13 14.3C15.522 14.3 17.55 12.272 17.55 9.75C17.55 7.228 15.522 5.2 13 5.2ZM13 11.7C11.921 11.7 11.05 10.829 11.05 9.75C11.05 8.671 11.921 7.8 13 7.8C14.079 7.8 14.95 8.671 14.95 9.75C14.95 10.829 14.079 11.7 13 11.7Z" fill="#002378"/>
</svg>
